<svg width="300" height="300" viewBox="0 0 300 300" fill="none" xmlns="http://www.w3.org/2000/svg">
<path d="M7.40081 0.325954C7.87218 0.753506 8.12427 1.13084 8.15778 1.77145C8.14406 2.25302 8.01367 2.61353 7.68838 2.97214C7.22372 3.40701 6.84058 3.57625 6.20295 3.55809C5.6179 3.48994 5.25648 3.19694 4.8908 2.74984C4.59767 2.34205 4.57146 1.90831 4.62831 1.42034C4.7666 0.858834 5.11635 0.510997 5.5768 0.180036C6.15705 -0.116256 6.86846 -0.0324398 7.40081 0.325954Z" fill="black"/>
<path d="M43.7645 0.450226C44.1136 0.733607 44.3733 1.04533 44.4648 1.49331C44.5116 1.96936 44.4326 2.32772 44.1729 2.73361C43.8636 3.08651 43.5527 3.32484 43.0785 3.39024C42.5292 3.39557 42.1158 3.28957 41.7148 2.90803C41.3693 2.53179 41.2143 2.17172 41.2323 1.64949C41.3073 1.12239 41.5681 0.75292 41.9793 0.426571C42.5134 0.0701264 43.2307 0.101913 43.7645 0.450226Z" fill="black"/>
<path d="M80.2154 0.61786C80.5381 0.915775 80.7293 1.19706 80.7991 1.63929C80.7974 2.07371 80.6989 2.45317 80.3973 2.77984C80.0833 3.07126 79.7824 3.24554 79.3393 3.24381C78.882 3.20382 78.5423 3.05481 78.2273 2.71543C77.9616 2.38279 77.8572 2.06026 77.8944 1.63473C77.9751 1.16378 78.1762 0.859086 78.5456 0.563996C79.0754 0.209704 79.6998 0.281586 80.2154 0.61786Z" fill="black"/>
<path d="M116.687 0.804707C116.957 1.06417 117.085 1.34183 117.133 1.71213C117.122 2.13726 116.977 2.46776 116.683 2.77374C116.394 3.00268 116.091 3.10367 115.723 3.09379C115.304 3.02532 114.99 2.84794 114.726 2.51468C114.543 2.18906 114.478 1.89029 114.539 1.52062C114.657 1.11277 114.869 0.815006 115.242 0.605495C115.767 0.395506 116.236 0.465558 116.687 0.804707Z" fill="black"/>
<path d="M152.665 0.690765C153.018 0.860737 153.225 1.06734 153.395 1.42035C153.453 1.78475 153.437 2.0622 153.276 2.39618C153.04 2.65767 152.85 2.85001 152.49 2.90746C152.076 2.92614 151.815 2.87488 151.498 2.5877C151.211 2.27028 151.159 2.01002 151.178 1.59534C151.236 1.23539 151.428 1.04591 151.689 0.809323C152.023 0.648516 152.301 0.632605 152.665 0.690765Z" fill="black"/>
<path d="M189.073 0.836581C189.391 0.998649 189.593 1.1602 189.729 1.49321C189.768 1.8454 189.767 2.00238 189.606 2.31856C189.345 2.62167 189.187 2.72085 188.785 2.76543C188.473 2.75248 188.289 2.6467 188.051 2.44168C187.841 2.18908 187.793 1.96832 187.807 1.63856C187.863 1.31924 188.047 1.1201 188.288 0.918659C188.554 0.809767 188.792 0.787044 189.073 0.836581Z" fill="black"/>
<path d="M225.699 1.05561C225.906 1.17996 225.969 1.2678 226.031 1.49992C226.075 1.77234 226.083 1.95438 225.982 2.21383C225.817 2.40024 225.713 2.49639 225.48 2.58775C225.167 2.60175 224.911 2.56746 224.641 2.40535C224.479 2.13517 224.444 1.87937 224.458 1.56632C224.55 1.33286 224.646 1.22921 224.832 1.06473C225.136 0.946006 225.387 0.972248 225.699 1.05561Z" fill="black"/>
<path d="M262.106 1.20147C262.317 1.32819 262.326 1.4241 262.389 1.66658C262.399 1.96351 262.367 2.06958 262.179 2.29585C261.981 2.45145 261.884 2.44158 261.627 2.42809C261.376 2.36881 261.376 2.36881 261.24 2.28673C261.11 2.07091 261.093 1.88888 261.085 1.63922C261.173 1.42909 261.253 1.31438 261.431 1.17411C261.676 1.10624 261.862 1.14368 262.106 1.20147Z" fill="black"/>
<path d="M298.586 1.42035C298.7 1.62554 298.7 1.62554 298.732 1.8581C298.655 2.0633 298.655 2.0633 298.513 2.2229C298.34 2.29585 298.34 2.29585 298.149 2.29585C297.913 2.19952 297.811 2.14039 297.711 1.9037C297.711 1.65613 297.779 1.54117 297.93 1.34739C298.212 1.25341 298.322 1.29093 298.586 1.42035Z" fill="black"/>
<path d="M26.9542 16.8877C27.7796 17.4939 28.3215 18.4328 28.4864 19.4412C28.5774 20.5094 28.3898 21.4719 27.7568 22.3596C27.7264 22.4042 27.696 22.4487 27.6647 22.4947C27.0902 23.2503 26.1257 23.7437 25.2032 23.8917C24.0436 23.9621 22.954 23.7511 22.0385 22.9888C21.2589 22.2512 20.7685 21.2653 20.7231 20.188C20.7041 19.0001 21.1339 18.059 21.92 17.1795C23.3962 15.9695 25.3567 15.7405 26.9542 16.8877ZM22.0659 17.6172C21.2901 18.5857 21.1148 19.4696 21.1904 20.6815C21.3113 21.4818 21.8184 22.2987 22.4626 22.7859C23.4071 23.4192 24.3097 23.6371 25.4277 23.42C26.3575 23.2126 27.0513 22.673 27.5693 21.889C28.0576 21.0959 28.2403 20.1443 28.0455 19.2232C27.7062 18.1555 27.116 17.3892 26.1175 16.8663C24.7505 16.2352 23.1309 16.576 22.0659 17.6172Z" fill="black"/>
<path d="M62.9742 17.0076C63.1376 17.13 63.2862 17.2582 63.4345 17.3983C63.5039 17.4605 63.5039 17.4605 63.5747 17.524C64.2454 18.1531 64.5921 18.9459 64.6402 19.8686C64.6574 20.8114 64.3824 21.6653 63.7263 22.3595C63.6849 22.4058 63.6434 22.4521 63.6007 22.4997C62.9185 23.2269 62.0613 23.5304 61.0678 23.5679C60.188 23.5404 59.4109 23.2604 58.765 22.6513C58.7188 22.6107 58.6725 22.5701 58.6248 22.5282C58.0155 21.9658 57.6573 21.1655 57.5694 20.3452C57.5367 19.2563 57.8275 18.4138 58.5424 17.6015C59.6966 16.3839 61.5337 16.1274 62.9742 17.0076ZM59.0569 17.6172C59.0113 17.6538 58.9656 17.6903 58.9186 17.728C58.3344 18.2512 58.0094 19.0315 57.9442 19.8028C57.908 20.7562 58.2088 21.5421 58.8517 22.2412C59.539 22.9098 60.3304 23.1918 61.2762 23.1823C62.2681 23.1055 63.0133 22.645 63.6522 21.9067C64.1525 21.2134 64.3071 20.4259 64.2371 19.5871C64.113 18.9783 63.8992 18.4647 63.5075 17.982C63.4709 17.9364 63.4343 17.8907 63.3966 17.8438C62.8784 17.265 62.1046 16.9401 61.3406 16.8694C60.4883 16.8337 59.7193 17.0797 59.0569 17.6172Z" fill="black"/>
<path d="M99.6229 17.6173C100.191 18.0823 100.638 18.7733 100.717 19.5142C100.786 20.5543 100.586 21.3349 99.9333 22.155C99.4086 22.7288 98.6392 23.1181 97.8636 23.1804C96.8309 23.2165 96.0261 22.8918 95.2681 22.2C94.6014 21.4993 94.4078 20.7035 94.4248 19.7667C94.4852 18.9171 94.9032 18.1844 95.5175 17.6042C96.7539 16.6125 98.3845 16.6276 99.6229 17.6173ZM95.3907 18.2272C94.8309 18.9814 94.7273 19.6885 94.8076 20.6086C94.9606 21.3455 95.3668 21.9059 95.9658 22.3505C96.7152 22.8341 97.5216 22.9307 98.3943 22.7495C99.2473 22.4712 99.8013 21.8946 100.214 21.1136C100.472 20.4846 100.447 19.6463 100.239 19.0081C99.9024 18.2268 99.3081 17.6536 98.5194 17.33C97.3686 17.0036 96.1683 17.3134 95.3907 18.2272Z" fill="black"/>
<path d="M135.565 17.6628C136.248 18.1532 136.663 18.7626 136.833 19.5871C136.907 20.3945 136.753 21.1562 136.226 21.7898C135.67 22.386 135.085 22.7264 134.263 22.8147C133.555 22.8377 132.841 22.6535 132.293 22.1908C131.705 21.6315 131.346 21.0472 131.273 20.2226C131.256 19.3597 131.506 18.6731 132.093 18.0407C133.042 17.132 134.44 16.9702 135.565 17.6628ZM131.913 18.707C131.556 19.4058 131.474 20.0707 131.685 20.8274C131.908 21.4437 132.379 21.9873 132.966 22.2866C133.696 22.5785 134.343 22.5887 135.084 22.3205C135.73 22.0017 136.219 21.4507 136.45 20.7727C136.639 20.0726 136.572 19.4381 136.249 18.7845C135.768 18.1206 135.23 17.7103 134.425 17.5442C133.356 17.4025 132.573 17.9111 131.913 18.707Z" fill="black"/>
<path d="M171.981 18.049C172.525 18.5049 172.901 19.06 172.966 19.7789C172.985 20.5237 172.838 21.0796 172.355 21.6574C171.861 22.1713 171.282 22.4374 170.573 22.4553C169.812 22.4442 169.275 22.1929 168.729 21.6673C168.213 21.0695 168.078 20.4293 168.133 19.6601C168.255 18.955 168.62 18.4465 169.169 18.0003C170.008 17.4155 171.16 17.4742 171.981 18.049ZM168.899 18.5885C168.801 18.7184 168.801 18.7184 168.717 18.8576C168.687 18.9046 168.657 18.9516 168.626 19.0001C168.365 19.486 168.348 19.9967 168.425 20.5356C168.606 21.0855 168.877 21.5394 169.373 21.8489C169.42 21.8788 169.467 21.9087 169.516 21.9395C170.044 22.2233 170.67 22.2407 171.245 22.09C171.918 21.8161 172.288 21.3773 172.589 20.7323C172.782 20.1713 172.718 19.5702 172.469 19.04C172.266 18.6821 172.058 18.4193 171.708 18.2009C171.661 18.171 171.614 18.1411 171.565 18.1103C170.679 17.6342 169.578 17.8621 168.899 18.5885Z" fill="black"/>
<path d="M208.262 18.3676C208.672 18.6866 208.965 19.1469 209.064 19.6601C209.129 20.272 209.006 20.775 208.659 21.2846C208.283 21.7501 207.822 22.0211 207.223 22.0851C206.571 22.1053 206.01 21.9161 205.528 21.4678C205.113 20.9878 204.949 20.4834 204.958 19.8587C205.015 19.2987 205.282 18.7873 205.708 18.4198C206.544 17.8599 207.398 17.815 208.262 18.3676ZM205.708 18.7116C205.344 19.2227 205.118 19.6772 205.197 20.3167C205.385 20.9867 205.713 21.3384 206.294 21.7018C206.674 21.8981 207.093 21.9104 207.5 21.7964C207.879 21.6564 208.151 21.5142 208.407 21.1922C208.44 21.151 208.473 21.1098 208.507 21.0674C208.792 20.672 208.869 20.2902 208.845 19.806C208.754 19.3334 208.565 18.8947 208.181 18.5902C207.381 18.0555 206.449 18.069 205.708 18.7116Z" fill="black"/>
<path d="M244.614 18.7298C244.974 19.0899 245.158 19.4584 245.197 19.9655C245.161 20.521 244.994 20.9484 244.596 21.3381C244.154 21.654 243.746 21.7393 243.209 21.7029C242.757 21.5915 242.373 21.3822 242.099 20.9924C241.829 20.541 241.736 20.0987 241.859 19.5808C242.011 19.1318 242.255 18.789 242.667 18.5428C243.356 18.2045 243.994 18.3005 244.614 18.7298ZM242.343 19.0718C242.033 19.5184 241.968 19.9272 242.042 20.4626C242.22 20.9063 242.519 21.194 242.931 21.4293C243.422 21.5601 243.877 21.5388 244.322 21.2848C244.632 21.06 244.867 20.7648 244.96 20.3896C245.017 19.89 244.968 19.4891 244.668 19.0764C244.414 18.8087 244.127 18.5907 243.755 18.5411C243.174 18.5328 242.74 18.6251 242.343 19.0718Z" fill="black"/>
<path d="M280.645 18.8587C280.966 19.0735 281.174 19.2943 281.258 19.6815C281.319 20.0993 281.296 20.3809 281.076 20.7545C280.823 21.0635 280.584 21.225 280.2 21.3382C279.756 21.3625 279.408 21.2872 279.062 21.0004C278.756 20.7013 278.693 20.404 278.664 19.9881C278.673 19.6174 278.822 19.3749 279.051 19.0947C279.533 18.7002 280.071 18.5799 280.645 18.8587ZM279.12 19.2451C278.878 19.5417 278.794 19.7919 278.823 20.1708C278.883 20.5216 279.014 20.7769 279.305 20.9947C279.63 21.1847 279.895 21.2286 280.266 21.1629C280.629 21.0597 280.847 20.8793 281.035 20.5584C281.184 20.2233 281.177 19.9366 281.076 19.5871C280.91 19.2669 280.752 19.0742 280.419 18.9305C279.883 18.8095 279.556 18.8865 279.12 19.2451Z" fill="black"/>
<path d="M7.71175 36.3129C8.19764 36.6387 8.50963 37.1296 8.6685 37.69C8.79516 38.4753 8.6552 39.1413 8.18827 39.7939C7.77163 40.2677 7.18888 40.5407 6.56889 40.6224C5.90552 40.6549 5.27229 40.4208 4.75856 40.0031C4.28107 39.5141 4.07582 38.9432 4.02183 38.2737C4.04284 37.6421 4.28541 37.0595 4.70127 36.5865C5.61466 35.7987 6.66996 35.7372 7.71175 36.3129Z" fill="black"/>
<path d="M44.027 36.4406C44.5476 36.8243 44.8402 37.2683 44.9755 37.8998C45.0665 38.5217 44.9198 39.1115 44.5463 39.6183C44.0809 40.127 43.5494 40.3808 42.8596 40.4169C42.1698 40.3808 41.6383 40.127 41.173 39.6183C40.7995 39.1115 40.6527 38.5217 40.7438 37.8998C40.879 37.2683 41.1717 36.8243 41.6923 36.4406C42.4598 36.0266 43.2594 36.0266 44.027 36.4406Z" fill="black"/>
<path d="M80.1653 36.5136C80.6819 36.8077 81.0736 37.2506 81.2369 37.8269C81.3142 38.4397 81.2348 38.9257 80.8721 39.432C80.5132 39.8299 80.1199 40.1184 79.5767 40.187C78.9573 40.2178 78.4857 40.0792 78.0215 39.6606C77.5698 39.1749 77.3934 38.7141 77.4133 38.0503C77.4904 37.4688 77.7897 37.0471 78.2438 36.6892C78.8288 36.2826 79.5128 36.2193 80.1653 36.5136Z" fill="black"/>
<path d="M116.573 36.696C116.964 36.9264 117.256 37.2684 117.457 37.6718C117.553 38.2065 117.561 38.7333 117.279 39.2131C117 39.5727 116.702 39.8188 116.258 39.9427C115.719 40.0023 115.24 39.9913 114.799 39.6509C114.451 39.3213 114.177 39.0018 114.12 38.5117C114.118 37.9147 114.183 37.4847 114.598 37.038C115.137 36.547 115.89 36.3971 116.573 36.696Z" fill="black"/>
<path d="M152.894 36.8526C153.282 37.0564 153.621 37.4106 153.76 37.8267C153.808 38.3714 153.81 38.7748 153.468 39.2129C153.104 39.5772 152.844 39.7338 152.319 39.7465C151.833 39.7406 151.577 39.6567 151.227 39.3064C150.862 38.9006 150.815 38.588 150.821 38.0462C150.861 37.6086 151.071 37.359 151.393 37.0698C151.803 36.7286 152.39 36.6995 152.894 36.8526Z" fill="black"/>
<path d="M189.647 37.2842C189.917 37.5437 190.045 37.8213 190.094 38.1916C190.083 38.6167 189.938 38.9473 189.644 39.2532C189.355 39.4822 189.052 39.5832 188.684 39.5733C188.265 39.5048 187.951 39.3274 187.686 38.9942C187.503 38.6686 187.439 38.3698 187.499 38.0001C187.618 37.5923 187.83 37.2945 188.203 37.085C188.727 36.875 189.196 36.9451 189.647 37.2842Z" fill="black"/>
<path d="M225.977 37.4392C226.236 37.6845 226.349 37.8969 226.36 38.2606C226.336 38.6619 226.199 38.8588 225.918 39.1401C225.659 39.3125 225.497 39.3381 225.188 39.359C224.816 39.283 224.58 39.1155 224.313 38.8483C224.139 38.5095 224.127 38.1868 224.24 37.8268C224.419 37.5321 224.651 37.2958 224.987 37.193C225.382 37.1481 225.664 37.1909 225.977 37.4392Z" fill="black"/>
<path d="M262.311 37.5897C262.486 37.7698 262.56 37.8745 262.617 38.1187C262.603 38.5034 262.529 38.7245 262.252 38.9942C261.948 39.1748 261.714 39.1516 261.376 39.0671C261.161 38.933 261.041 38.8244 260.911 38.6066C260.83 38.2581 260.878 37.9972 261.066 37.6946C261.447 37.3244 261.858 37.3079 262.311 37.5897Z" fill="black"/>
<path d="M298.586 37.6808C298.798 37.8076 298.806 37.9035 298.869 38.1459C298.879 38.4429 298.847 38.5489 298.659 38.7752C298.461 38.9308 298.364 38.921 298.108 38.9075C297.857 38.8482 297.857 38.8482 297.72 38.7661C297.59 38.5503 297.574 38.3683 297.565 38.1186C297.654 37.9085 297.733 37.7937 297.911 37.6535C298.156 37.5856 298.342 37.623 298.586 37.6808Z" fill="black"/>
<path d="M27.6975 52.5463C28.7177 53.4093 29.4691 54.5926 29.5971 55.9467C29.665 57.3683 29.3654 58.6493 28.4277 59.7599C27.5318 60.7306 26.3825 61.4248 25.0327 61.4829C23.5652 61.5154 22.2937 61.1704 21.1903 60.1523C20.1884 59.1618 19.6463 57.9645 19.6354 56.55C19.633 55.1268 20.1428 53.9134 21.1453 52.8994C22.9426 51.212 25.7221 51.0389 27.6975 52.5463ZM21.2177 53.5541C20.3678 54.5812 20.0748 55.7762 20.1689 57.088C20.3268 58.2614 20.9239 59.2815 21.8333 60.0363C22.9213 60.8271 24.1307 61.0778 25.4517 60.9264C26.617 60.7014 27.6253 60.0125 28.3314 59.067C29.0443 57.9763 29.2397 56.7124 28.9971 55.4419C28.6893 54.2864 27.9744 53.2819 26.9388 52.6737C24.9631 51.6139 22.7966 51.9111 21.2177 53.5541Z" fill="black"/>
<path d="M63.8477 52.8699C64.8805 53.6762 65.4375 54.7859 65.6233 56.0665C65.7362 57.2806 65.345 58.4113 64.6156 59.377C63.7022 60.444 62.5531 60.9103 61.1915 61.048C60.0387 61.0952 58.8916 60.6183 58.0309 59.8695C57.1021 58.9575 56.5889 57.8111 56.5489 56.5043C56.5916 55.2629 57.051 54.1314 57.9211 53.2454C59.591 51.728 62.0013 51.5532 63.8477 52.8699ZM58.1084 53.7318C57.2721 54.7514 56.9722 55.8656 57.0869 57.1609C57.2816 58.2007 57.8201 59.1365 58.6738 59.7646C59.7097 60.4542 60.8604 60.7065 62.0859 60.4669C63.1701 60.1263 64.0185 59.5246 64.6019 58.5471C65.1411 57.5101 65.2918 56.4394 64.9986 55.3005C64.8411 54.8236 64.6083 54.4256 64.31 54.0237C64.2583 53.9519 64.2583 53.9519 64.2054 53.8786C63.6241 53.1359 62.6714 52.6609 61.7564 52.4915C60.4077 52.3508 59.0553 52.7186 58.1084 53.7318Z" fill="black"/>
<path d="M99.1852 52.7834C99.2387 52.8044 99.2922 52.8255 99.3473 52.8472C100.293 53.2685 100.999 54.0895 101.374 55.0405C101.734 56.0485 101.715 57.1926 101.301 58.1823C101.151 58.4671 100.982 58.7266 100.79 58.9849C100.756 59.0327 100.721 59.0806 100.686 59.1299C100.108 59.8683 99.1531 60.3666 98.2367 60.517C97.0663 60.6261 96.0581 60.4237 95.0994 59.7145C95.0532 59.6825 95.007 59.6505 94.9594 59.6176C94.2075 59.0463 93.7113 58.0796 93.5672 57.1609C93.4955 55.9764 93.6465 55.0013 94.3698 54.0237C94.4177 53.9544 94.4177 53.9544 94.4667 53.8837C95.5467 52.4622 97.6017 52.1365 99.1852 52.7834ZM96.0479 53.2211C95.9861 53.2521 95.9243 53.283 95.8606 53.3149C94.9722 53.8018 94.4024 54.5327 94.0916 55.492C93.8271 56.4965 93.9432 57.4459 94.4655 58.3476C95.0092 59.2163 95.7479 59.7796 96.7453 60.0402C96.8041 60.0531 96.8628 60.066 96.9234 60.0793C97.0059 60.0975 97.0059 60.0975 97.0901 60.116C97.9001 60.2445 98.8746 60.0299 99.55 59.5685C100.324 58.9647 100.945 58.2154 101.155 57.2339C101.211 56.5284 101.234 55.7712 100.936 55.1181C100.908 55.0533 100.879 54.9886 100.85 54.922C100.363 53.9298 99.5935 53.4103 98.6015 53.0022C97.8049 52.7724 96.7772 52.8417 96.0479 53.2211Z" fill="black"/>
<path d="M136.387 53.7569C137.114 54.4315 137.575 55.2704 137.651 56.2703C137.687 57.3442 137.344 58.253 136.614 59.0396C135.846 59.7714 134.908 60.1201 133.849 60.0972C132.829 60.0164 132.026 59.5854 131.326 58.8481C130.834 58.2682 130.547 57.552 130.485 56.7961C130.48 56.7364 130.475 56.6767 130.47 56.6152C130.432 55.71 130.746 54.8755 131.313 54.1779C132.668 52.7173 134.807 52.4746 136.387 53.7569ZM131.767 54.2106C131.139 54.91 130.83 55.8051 130.857 56.7386C130.943 57.5455 131.303 58.3807 131.914 58.9305C132.709 59.5047 133.6 59.8078 134.586 59.6854C135.48 59.4929 136.231 58.9981 136.76 58.2553C137.194 57.5197 137.397 56.6169 137.198 55.7747C136.912 54.8976 136.434 54.1724 135.629 53.6971C134.332 53.0523 132.85 53.2385 131.767 54.2106Z" fill="black"/>
<path d="M172.165 53.8308C172.313 53.9364 172.448 54.0481 172.583 54.1696C172.628 54.2079 172.673 54.2462 172.72 54.2856C173.263 54.7813 173.564 55.4653 173.629 56.1951C173.639 57.1512 173.48 57.9028 172.802 58.6201C172.169 59.2595 171.475 59.5869 170.563 59.596C169.761 59.5924 169.1 59.38 168.498 58.839C168.453 58.8007 168.408 58.7625 168.361 58.723C167.818 58.2274 167.517 57.5433 167.452 56.8135C167.443 55.917 167.569 55.1397 168.206 54.4615C169.26 53.398 170.825 53.0303 172.165 53.8308ZM168.438 54.6575C167.933 55.2806 167.713 55.9997 167.768 56.7962C167.855 57.4949 168.192 58.1459 168.717 58.6201C169.428 59.1163 170.118 59.3657 170.993 59.2568C171.692 59.1277 172.37 58.739 172.78 58.151C173.225 57.4263 173.42 56.7389 173.263 55.8887C173.083 55.1559 172.634 54.5393 171.995 54.1468C170.8 53.4578 169.401 53.641 168.438 54.6575Z" fill="black"/>
<path d="M208.772 54.5344C209.276 55.0065 209.614 55.5862 209.656 56.2843C209.68 57.0913 209.464 57.7452 208.912 58.3479C208.307 58.9184 207.662 59.1601 206.833 59.1462C206.095 59.082 205.492 58.7304 204.992 58.196C204.491 57.5898 204.333 56.9121 204.394 56.1395C204.538 55.3446 204.975 54.7042 205.635 54.2426C206.691 53.6615 207.838 53.7669 208.772 54.5344ZM205.27 54.8992C204.824 55.4999 204.599 56.1187 204.686 56.8691C204.858 57.5684 205.161 58.1143 205.776 58.5016C206.362 58.8228 206.934 58.9496 207.59 58.7888C208.304 58.5517 208.759 58.2209 209.123 57.5579C209.417 56.9536 209.448 56.3636 209.237 55.7291C208.954 55.0319 208.574 54.645 207.896 54.3155C206.992 53.9601 205.949 54.2021 205.27 54.8992Z" fill="black"/>
<path d="M244.368 54.5025C245.021 54.8494 245.386 55.3002 245.617 55.9936C245.68 56.8011 245.596 57.3534 245.088 57.9863C244.746 58.3566 244.297 58.5978 243.79 58.6375C242.981 58.6543 242.473 58.5111 241.876 57.959C241.432 57.4605 241.359 56.9013 241.365 56.2547C241.412 55.6384 241.732 55.1599 242.188 54.7533C242.828 54.3463 243.649 54.2087 244.368 54.5025ZM242.003 55.2609C241.655 55.7447 241.515 56.2793 241.604 56.8691C241.736 57.3897 241.968 57.7927 242.407 58.1094C242.891 58.388 243.386 58.4906 243.939 58.4013C244.532 58.2132 244.955 57.851 245.259 57.3112C245.481 56.8025 245.467 56.2794 245.284 55.7611C245.059 55.2607 244.745 54.9469 244.244 54.7214C243.429 54.4364 242.591 54.6094 242.003 55.2609Z" fill="black"/>
<path d="M281.094 55.2094C281.47 55.5849 281.643 55.9589 281.678 56.4862C281.669 57.0262 281.456 57.4371 281.076 57.8177C280.632 58.1296 280.229 58.2365 279.69 58.1825C279.237 58.0748 278.852 57.8605 278.579 57.472C278.314 57.0288 278.226 56.6356 278.34 56.1219C278.485 55.6322 278.697 55.2937 279.142 55.0224C279.832 54.6901 280.477 54.7825 281.094 55.2094ZM278.823 55.5514C278.523 55.9838 278.459 56.3478 278.522 56.8692C278.671 57.3547 278.956 57.6412 279.387 57.8986C279.736 58.0438 280.157 58.0195 280.516 57.9134C280.919 57.7291 281.185 57.4677 281.375 57.0619C281.503 56.6842 281.522 56.2687 281.372 55.8951C281.129 55.4877 280.814 55.1699 280.346 55.0452C279.737 54.9757 279.24 55.081 278.823 55.5514Z" fill="black"/>
<path d="M8.04834 72.3182C8.74542 72.8314 9.16016 73.5188 9.29778 74.3793C9.38157 75.1595 9.15509 75.9379 8.69073 76.5686C8.14342 77.2177 7.43087 77.5887 6.58228 77.6798C5.70145 77.7085 4.91705 77.3911 4.26864 76.8057C3.69591 76.2134 3.42978 75.4041 3.44071 74.5893C3.52567 73.7074 3.92284 72.9415 4.60294 72.378C5.67508 71.6609 6.95156 71.6344 8.04834 72.3182Z" fill="black"/>
<path d="M44.3531 72.5193C44.9346 72.9361 45.3557 73.5225 45.4862 74.2333C45.5653 75.0564 45.447 75.7314 44.9618 76.4084C44.4854 76.9763 43.8679 77.3227 43.1301 77.3936C42.3127 77.4212 41.6667 77.2417 41.0359 76.7125C40.4771 76.1602 40.2274 75.5297 40.2011 74.7531C40.2215 73.9666 40.4807 73.3356 41.0356 72.7741C42.0004 71.9681 43.2713 71.8587 44.3531 72.5193Z" fill="black"/>
<path d="M80.8903 72.8608C81.4065 73.3887 81.7293 73.9788 81.7544 74.7289C81.7165 75.4009 81.5053 76.0186 81.018 76.4951C80.4693 76.9462 79.8693 77.1875 79.1529 77.1471C78.4815 77.0579 77.9095 76.8121 77.4729 76.281C77.0463 75.6959 76.8675 75.0784 76.9633 74.3576C77.1077 73.6775 77.3957 73.1739 77.9628 72.7605C78.9155 72.1611 79.9695 72.241 80.8903 72.8608Z" fill="black"/>
<path d="M116.842 72.8471C117.402 73.2545 117.792 73.6884 117.936 74.3793C118.003 74.9957 117.895 75.5802 117.515 76.0816C117.106 76.5156 116.623 76.8206 116.02 76.8747C115.25 76.8896 114.788 76.695 114.228 76.1605C113.815 75.7016 113.675 75.1881 113.685 74.5825C113.743 73.9785 113.976 73.5206 114.423 73.1139C115.118 72.5795 116.047 72.4207 116.842 72.8471Z" fill="black"/>
<path d="M153.322 73.139C153.724 73.4549 154.034 73.7933 154.124 74.3063C154.18 74.889 154.173 75.4386 153.79 75.9069C153.425 76.2892 153.076 76.543 152.539 76.5829C151.88 76.5931 151.456 76.5346 150.964 76.0802C150.521 75.6001 150.435 75.1642 150.456 74.5172C150.509 73.9666 150.716 73.6379 151.121 73.263C151.715 72.7959 152.674 72.736 153.322 73.139Z" fill="black"/>
<path d="M189.729 73.4308C190.143 73.8264 190.356 74.1527 190.413 74.7304C190.396 75.2389 190.184 75.6356 189.816 75.9798C189.438 76.2798 189.109 76.3677 188.63 76.3355C188.08 76.2608 187.778 76.045 187.43 75.6227C187.173 75.2688 187.115 74.8809 187.176 74.4523C187.318 73.9293 187.603 73.5839 188.051 73.2849C188.587 73.0469 189.244 73.0965 189.729 73.4308Z" fill="black"/>
<path d="M225.863 73.5082C226.185 73.7354 226.448 74.0014 226.574 74.3792C226.613 74.8144 226.615 75.1786 226.355 75.5465C226.019 75.8846 225.764 76.0665 225.275 76.0755C224.883 76.0692 224.623 76.0021 224.337 75.7178C224 75.3408 223.925 75.0651 223.933 74.5613C223.965 74.171 224.14 73.9518 224.422 73.6997C224.838 73.3524 225.36 73.3437 225.863 73.5082Z" fill="black"/>
<path d="M262.308 73.8016C262.577 74.0187 262.741 74.2083 262.817 74.548C262.845 74.95 262.753 75.1631 262.526 75.4919C262.276 75.7411 262.098 75.8317 261.745 75.843C261.344 75.8186 261.147 75.682 260.866 75.4007C260.693 75.1422 260.668 74.9796 260.647 74.6711C260.723 74.2991 260.89 74.0629 261.158 73.7956C261.526 73.6074 261.947 73.5812 262.308 73.8016Z" fill="black"/>
<path d="M298.659 74.0145C298.867 74.1388 298.93 74.2267 298.992 74.4588C299.036 74.7312 299.044 74.9132 298.942 75.1727C298.778 75.3591 298.674 75.4553 298.44 75.5466C298.127 75.5606 297.872 75.5263 297.601 75.3642C297.439 75.094 297.405 74.8382 297.419 74.5252C297.51 74.2917 297.606 74.1881 297.793 74.0236C298.096 73.9049 298.347 73.9311 298.659 74.0145Z" fill="black"/>
<path d="M28.1336 87.9618C28.3329 88.1205 28.5199 88.2856 28.7053 88.4603C28.769 88.5182 28.8326 88.5761 28.8982 88.6358C30.0333 89.7113 30.6641 91.2004 30.7097 92.7553C30.7237 94.3797 30.2747 95.868 29.1431 97.0694C29.0896 97.1277 29.0362 97.186 28.9812 97.2461C27.8921 98.3888 26.4197 99.0267 24.8482 99.0737C23.2845 99.0882 21.7712 98.6724 20.6067 97.5801C20.5446 97.523 20.4825 97.4658 20.4186 97.4069C19.2499 96.2872 18.5778 94.8314 18.5294 93.2124C18.5174 91.9195 18.8061 90.897 19.4393 89.7735C19.4897 89.6816 19.4897 89.6816 19.541 89.5877C20.0668 88.7173 20.8863 88.0538 21.774 87.5848C21.839 87.5498 21.904 87.5148 21.971 87.4788C23.9275 86.5078 26.3433 86.7352 28.1336 87.9618ZM20.7395 89.1215C19.6037 90.2827 19.1423 91.6747 19.1475 93.2756C19.2319 94.7641 19.8966 96.0569 20.9715 97.0694C22.1593 98.1286 23.6134 98.5293 25.1827 98.4403C26.7697 98.2508 28.0692 97.4482 29.0564 96.2167C29.9065 95.0298 30.2181 93.6097 30.0459 92.1675C29.774 90.5954 28.9203 89.3116 27.6337 88.3902C25.4211 87.0282 22.6142 87.2821 20.7395 89.1215Z" fill="black"/>
<path d="M64.2966 88.4566C64.4781 88.5975 64.6502 88.7442 64.8208 88.898C64.8707 88.9412 64.9206 88.9844 64.9721 89.0288C65.8654 89.8519 66.4895 91.0949 66.588 92.3072C66.655 93.9894 66.3421 95.4224 65.1856 96.7046C65.1208 96.7795 65.1208 96.7795 65.0547 96.856C64.2317 97.7492 62.9886 98.3734 61.7763 98.4718C60.094 98.5388 58.6611 98.2259 57.3788 97.0694C57.3288 97.0263 57.2789 96.9831 57.2274 96.9386C56.3342 96.1155 55.71 94.8725 55.6116 93.6603C55.5446 91.978 55.8574 90.5451 57.014 89.2628C57.0571 89.2129 57.1003 89.1629 57.1448 89.1115C58.9618 87.1396 62.1427 86.9659 64.2966 88.4566ZM57.6307 89.4418C56.6637 90.4457 56.1287 91.6775 56.1404 93.0746C56.2068 94.5265 56.7817 95.7356 57.8439 96.7229C58.9079 97.6252 60.2016 98.0085 61.584 97.9298C62.9315 97.7684 64.1463 97.1049 64.9995 96.0449C65.3672 95.5482 65.6406 95.0282 65.8422 94.4429C65.8592 94.3948 65.8763 94.3466 65.8938 94.297C66.2388 93.1453 66.0696 91.8612 65.5504 90.795C64.8823 89.5622 63.9377 88.7245 62.6049 88.2388C60.8032 87.7598 59 88.1586 57.6307 89.4418Z" fill="black"/>
<path d="M101.125 89.5128C101.675 90.099 102.061 90.7642 102.322 91.5246C102.34 91.5736 102.357 91.6226 102.374 91.6731C102.746 92.934 102.497 94.3278 101.88 95.4644C101.212 96.5467 100.26 97.3373 99.0393 97.7261C98.9061 97.769 98.9061 97.769 98.7702 97.8128C97.4635 98.1052 96.1165 97.8921 94.9717 97.1972C93.8616 96.4387 93.0797 95.4357 92.7464 94.1192C92.4935 92.767 92.688 91.4625 93.4145 90.2852C94.2035 89.1502 95.3299 88.3529 96.7045 88.0956C96.7547 88.0857 96.805 88.0758 96.8567 88.0656C98.4361 87.8311 99.9806 88.4416 101.125 89.5128ZM94.4399 89.8259C94.109 90.1609 93.8618 90.5276 93.6402 90.9409C93.6112 90.9914 93.5822 91.0418 93.5524 91.0937C93.0357 92.0961 93.0488 93.2785 93.3492 94.3387C93.7913 95.5812 94.5744 96.4653 95.7634 97.0313C96.8909 97.5004 98.023 97.5397 99.1715 97.1288C100.391 96.6124 101.205 95.7977 101.725 94.5798C102.133 93.4335 102.122 92.2567 101.628 91.1399C101.067 89.9761 100.156 89.1873 98.9349 88.753C97.3074 88.2918 95.6757 88.6504 94.4399 89.8259Z" fill="black"/>
<path d="M136.808 89.5572C137.84 90.4394 138.288 91.531 138.459 92.8529C138.466 92.9986 138.456 93.1306 138.438 93.2756C138.428 93.3538 138.419 93.432 138.409 93.5127C138.211 94.7437 137.636 95.795 136.623 96.545C135.807 97.0779 134.762 97.4855 133.768 97.3613C133.651 97.3469 133.651 97.3469 133.531 97.3322C132.3 97.1347 131.249 96.5593 130.499 95.5464C129.826 94.515 129.563 93.4054 129.756 92.1812C130.02 90.9791 130.644 89.9794 131.683 89.3013C133.315 88.3357 135.285 88.3922 136.808 89.5572ZM131.069 90.4302C130.32 91.4173 130.097 92.4219 130.193 93.6403C130.372 94.6122 130.906 95.5192 131.697 96.1192C132.723 96.7997 133.834 97.0339 135.05 96.8007C136.154 96.4541 137.018 95.753 137.562 94.7347C137.985 93.8301 138.112 92.742 137.809 91.7753C137.376 90.6902 136.675 89.8801 135.608 89.3879C134.01 88.7313 132.243 89.1667 131.069 90.4302Z" fill="black"/>
<path d="M172.871 89.9697C173.696 90.6269 174.191 91.5521 174.318 92.596C174.392 93.7004 174.096 94.6949 173.376 95.5386C172.65 96.3282 171.7 96.728 170.635 96.7803C169.5 96.7682 168.616 96.3465 167.768 95.6104C167.027 94.7105 166.718 93.7849 166.747 92.6191C166.873 91.5985 167.338 90.6913 168.132 90.0299C169.546 88.9658 171.437 88.8944 172.871 89.9697ZM168.001 90.6993C167.322 91.5376 167.082 92.5083 167.184 93.5675C167.354 94.433 167.835 95.2573 168.571 95.7563C169.463 96.2701 170.346 96.4929 171.367 96.2924C172.239 96.0271 172.978 95.5354 173.436 94.74C173.898 93.8494 174.08 92.9157 173.783 91.9396C173.394 90.9361 172.81 90.3334 171.856 89.8657C170.517 89.3077 169.001 89.6445 168.001 90.6993Z" fill="black"/>
<path d="M208.991 90.4303C209.705 91.0145 210.135 91.7702 210.231 92.692C210.312 93.5382 210.023 94.4142 209.492 95.0732C208.823 95.7906 208.008 96.1784 207.03 96.2168C206.171 96.1956 205.366 95.8603 204.741 95.2775C204.094 94.5938 203.768 93.7514 203.793 92.8137C203.879 91.8794 204.261 91.1499 204.937 90.5064C206.123 89.5586 207.775 89.5061 208.991 90.4303ZM204.846 91.0641C204.277 91.7638 204.116 92.5408 204.175 93.4216C204.302 94.1513 204.674 94.8116 205.249 95.2795C205.983 95.773 206.78 95.9472 207.652 95.7956C208.376 95.6012 209.007 95.2157 209.429 94.5889C209.844 93.8203 210.016 93.0345 209.784 92.1722C209.53 91.4354 209.116 90.8409 208.423 90.4665C207.195 89.8873 205.804 90.0514 204.846 91.0641Z" fill="black"/>
<path d="M245.252 91.0139C245.827 91.5522 246.117 92.1773 246.146 92.961C246.135 93.7163 245.849 94.331 245.336 94.879C244.758 95.4201 244.115 95.6373 243.332 95.6257C242.586 95.567 241.978 95.216 241.472 94.6755C240.986 94.0866 240.829 93.4418 240.875 92.692C240.957 91.9245 241.357 91.333 241.942 90.8455C242.982 90.1022 244.282 90.2168 245.252 91.0139ZM241.75 91.3787C241.304 91.9794 241.079 92.5982 241.166 93.3486C241.338 94.0479 241.641 94.5938 242.256 94.981C242.842 95.3022 243.415 95.4291 244.071 95.2683C244.784 95.0312 245.24 94.7004 245.603 94.0374C245.897 93.4331 245.928 92.8431 245.717 92.2086C245.434 91.5114 245.054 91.1245 244.377 90.795C243.472 90.4396 242.429 90.6816 241.75 91.3787Z" fill="black"/>
<path d="M281.222 91.3266C281.633 91.6456 281.926 92.1059 282.024 92.6191C282.09 93.2309 281.967 93.7339 281.62 94.2435C281.243 94.7091 280.782 94.98 280.184 95.0441C279.531 95.0643 278.971 94.875 278.488 94.4268C278.074 93.9468 277.91 93.4423 277.918 92.8177C277.975 92.2577 278.243 91.7463 278.668 91.3788C279.504 90.8189 280.359 90.7739 281.222 91.3266ZM278.668 91.6706C278.305 92.1817 278.079 92.6361 278.157 93.2757C278.345 93.9457 278.674 94.2974 279.254 94.6608C279.634 94.857 280.054 94.8694 280.461 94.7554C280.839 94.6154 281.112 94.4732 281.368 94.1512C281.401 94.11 281.434 94.0688 281.468 94.0264C281.753 93.631 281.83 93.2492 281.805 92.765C281.714 92.2924 281.525 91.8537 281.142 91.5492C280.341 91.0144 279.41 91.028 278.668 91.6706Z" fill="black"/>
<path d="M8.53882 108.447C9.37569 109.153 9.75602 109.981 9.90911 111.052C9.95867 112.013 9.5538 112.906 8.95806 113.633C8.34172 114.3 7.4838 114.671 6.58599 114.737C5.63375 114.772 4.75521 114.453 4.03094 113.841C3.28796 113.132 2.88514 112.241 2.84534 111.21C2.89824 110.146 3.34027 109.241 4.11758 108.524C5.44343 107.508 7.17623 107.43 8.53882 108.447Z" fill="black"/>
<path d="M44.6608 108.574C45.3497 109.067 45.8147 109.735 45.9969 110.567C46.061 111.627 45.9651 112.49 45.2673 113.339C44.724 113.926 44.0367 114.329 43.2287 114.378C42.1849 114.403 41.3733 114.214 40.5862 113.485C39.8618 112.727 39.6856 111.914 39.7021 110.9C39.7365 110.066 40.1647 109.364 40.7575 108.798C41.8722 107.851 43.443 107.833 44.6608 108.574Z" fill="black"/>
<path d="M80.9997 108.866C81.6085 109.299 82.0422 109.977 82.1854 110.713C82.2588 111.658 82.0786 112.461 81.4558 113.193C80.7653 113.851 80.0355 114.098 79.0971 114.089C78.3892 114.036 77.7156 113.702 77.226 113.188C76.6027 112.429 76.4211 111.684 76.4944 110.713C76.6672 109.943 77.0716 109.315 77.7074 108.853C78.7687 108.181 79.9318 108.219 80.9997 108.866Z" fill="black"/>
<path d="M117.252 109.072C117.904 109.545 118.232 110.146 118.374 110.932C118.449 111.596 118.242 112.284 117.849 112.824C117.302 113.458 116.649 113.716 115.829 113.809C115.105 113.773 114.429 113.491 113.923 112.975C113.48 112.459 113.208 111.783 113.241 111.094C113.36 110.325 113.626 109.708 114.22 109.197C115.142 108.522 116.269 108.507 117.252 109.072Z" fill="black"/>
<path d="M153.541 109.327C154.031 109.627 154.342 110.168 154.489 110.713C154.565 111.455 154.463 112.031 154.074 112.664C153.57 113.156 153.029 113.432 152.319 113.44C151.703 113.431 151.135 113.281 150.695 112.829C150.177 112.15 150.035 111.567 150.112 110.713C150.283 110.045 150.612 109.656 151.176 109.278C151.919 108.868 152.809 108.925 153.541 109.327Z" fill="black"/>
<path d="M189.606 109.473C190.123 109.767 190.514 110.209 190.678 110.786C190.755 111.399 190.676 111.885 190.313 112.391C189.954 112.789 189.561 113.077 189.018 113.146C188.398 113.177 187.927 113.038 187.462 112.619C187.011 112.134 186.834 111.673 186.854 111.009C186.931 110.428 187.231 110.006 187.685 109.648C188.27 109.241 188.954 109.178 189.606 109.473Z" fill="black"/>
<path d="M226.21 109.91C226.634 110.29 226.837 110.64 226.894 111.21C226.879 111.64 226.726 112.002 226.44 112.322C226.043 112.689 225.681 112.87 225.125 112.851C224.594 112.775 224.231 112.513 223.902 112.1C223.657 111.741 223.595 111.359 223.656 110.932C223.799 110.406 224.086 110.069 224.531 109.764C225.11 109.487 225.682 109.572 226.21 109.91Z" fill="black"/>
<path d="M262.608 110.243C262.878 110.503 263.006 110.78 263.055 111.151C263.043 111.576 262.898 111.906 262.604 112.212C262.315 112.441 262.012 112.542 261.644 112.532C261.225 112.464 260.911 112.286 260.647 111.953C260.464 111.628 260.399 111.329 260.46 110.959C260.578 110.551 260.79 110.253 261.163 110.044C261.688 109.834 262.157 109.904 262.608 110.243Z" fill="black"/>
<path d="M298.513 110.275C298.832 110.437 299.034 110.599 299.17 110.932C299.209 111.284 299.208 111.441 299.047 111.757C298.786 112.06 298.627 112.159 298.226 112.204C297.914 112.191 297.73 112.085 297.492 111.88C297.281 111.627 297.234 111.407 297.247 111.077C297.304 110.758 297.487 110.558 297.729 110.357C297.995 110.248 298.233 110.225 298.513 110.275Z" fill="black"/>
<path d="M29.6538 124.283C31.0154 125.604 31.7706 127.426 31.8449 129.31C31.8516 131.057 31.2691 132.704 30.1645 134.06C30.1152 134.121 30.0659 134.182 30.0152 134.245C28.7771 135.702 26.9779 136.505 25.0938 136.668C23.2425 136.78 21.4587 136.178 20.023 135.008C19.9618 134.959 19.9005 134.91 19.8375 134.859C18.3803 133.621 17.578 131.822 17.4147 129.938C17.3025 128.086 17.9045 126.303 19.0745 124.867C19.1484 124.775 19.1484 124.775 19.2238 124.681C20.4299 123.262 22.1752 122.462 24.0085 122.263C26.1384 122.116 28.0761 122.861 29.6538 124.283ZM20.023 124.94C19.9383 125.023 19.9383 125.023 19.852 125.108C18.6599 126.353 18.1582 127.978 18.1735 129.673C18.2168 131.375 18.9057 132.85 20.096 134.06C20.1792 134.144 20.1792 134.144 20.2641 134.231C21.5092 135.423 23.1339 135.924 24.829 135.909C26.6442 135.863 28.1161 135.085 29.387 133.816C30.1514 133.008 30.584 132.121 30.8941 131.068C30.9137 131.002 30.9332 130.936 30.9534 130.867C31.3427 129.183 30.9444 127.424 30.0642 125.97C29.7936 125.568 29.4829 125.212 29.1431 124.867C29.0876 124.81 29.0321 124.754 28.9749 124.696C27.7298 123.504 26.1051 123.002 24.41 123.017C22.708 123.061 21.2329 123.75 20.023 124.94Z" fill="black"/>
<path d="M65.3452 124.484C66.5943 125.565 67.4835 127.18 67.6067 128.842C67.695 130.591 67.2808 132.317 66.0884 133.654C65.9829 133.766 65.8766 133.877 65.7692 133.987C65.706 134.053 65.6428 134.119 65.5777 134.187C65.5205 134.242 65.4634 134.296 65.4044 134.352C65.3716 134.384 65.3388 134.416 65.305 134.45C64.0691 135.6 62.3411 136.024 60.6976 135.982C59.0109 135.901 57.4065 135.084 56.2499 133.87C55.0293 132.447 54.4902 130.699 54.5905 128.84C54.7284 127.271 55.4782 125.893 56.5762 124.794C56.6349 124.734 56.6936 124.675 56.7541 124.613C59.1348 122.331 62.8612 122.497 65.3452 124.484ZM56.707 125.579C55.6942 126.717 55.2024 128.198 55.2421 129.713C55.3073 130.53 55.4856 131.277 55.8466 132.017C55.8772 132.083 55.9077 132.15 55.9392 132.218C56.2268 132.799 56.6345 133.241 57.0869 133.695C57.1378 133.748 57.1887 133.802 57.2411 133.857C58.0879 134.685 59.4072 135.25 60.589 135.3C60.6682 135.304 60.7474 135.307 60.829 135.311C61.8353 135.336 62.7437 135.155 63.6534 134.716C63.72 134.686 63.7866 134.655 63.8552 134.624C64.4359 134.336 64.8772 133.928 65.3315 133.476C65.3849 133.425 65.4383 133.374 65.4934 133.322C66.5402 132.252 66.9653 130.712 66.9523 129.252C66.9205 128.426 66.7156 127.653 66.3529 126.91C66.3224 126.843 66.2918 126.777 66.2603 126.708C65.9727 126.127 65.565 125.686 65.1126 125.232C65.0363 125.152 65.0363 125.152 64.9584 125.07C64.1109 124.24 62.793 123.678 61.6105 123.627C61.5375 123.623 61.4645 123.619 61.3893 123.615C59.5568 123.566 57.9613 124.241 56.707 125.579Z" fill="black"/>
<path d="M101.228 124.867C102.543 125.992 103.301 127.487 103.437 129.212C103.48 130.782 102.926 132.332 101.843 133.478C100.695 134.649 99.2159 135.281 97.58 135.327C95.9504 135.281 94.4695 134.652 93.322 133.489C92.2376 132.339 91.6784 130.784 91.723 129.212C91.8459 127.637 92.4694 126.366 93.5672 125.232C93.6166 125.18 93.666 125.129 93.7168 125.076C95.7293 123.14 99.0832 123.19 101.228 124.867ZM95.9019 124.502C95.8298 124.527 95.7577 124.552 95.6834 124.577C95.1305 124.786 94.6846 125.084 94.2239 125.45C94.162 125.498 94.1001 125.545 94.0363 125.593C93.0143 126.453 92.4897 127.769 92.3512 129.068C92.2415 130.434 92.6771 131.66 93.4942 132.746C93.5248 132.789 93.5554 132.832 93.5869 132.877C94.3788 133.923 95.7256 134.497 96.9918 134.675C98.5264 134.852 99.8923 134.304 101.089 133.374C102.017 132.545 102.667 131.319 102.777 130.078C102.863 128.557 102.543 127.205 101.52 126.034C101.345 125.841 101.345 125.841 101.155 125.669C101.092 125.61 101.092 125.61 101.029 125.549C99.8617 124.478 98.5039 124.231 96.9668 124.273C96.5905 124.293 96.2544 124.373 95.9019 124.502Z" fill="black"/>
<path d="M137.175 125.324C138.202 126.149 138.994 127.336 139.168 128.661C139.281 130.191 139.025 131.619 138.005 132.813C137.091 133.822 135.865 134.524 134.49 134.593C132.995 134.639 131.678 134.289 130.558 133.266C129.558 132.309 128.966 131.075 128.924 129.688C128.906 128.242 129.311 126.953 130.319 125.894C132.147 124.067 135.078 123.759 137.175 125.324ZM130.524 126.454C129.677 127.515 129.346 128.706 129.464 130.047C129.642 131.308 130.266 132.376 131.265 133.17C132.371 133.957 133.569 134.192 134.899 134.028C136.148 133.781 137.194 133.065 137.927 132.035C138.174 131.635 138.352 131.22 138.511 130.776C138.53 130.722 138.55 130.668 138.57 130.612C138.895 129.466 138.634 128.182 138.078 127.162C137.424 126.031 136.434 125.344 135.2 124.958C133.481 124.534 131.695 125.149 130.524 126.454Z" fill="black"/>
<path d="M173.466 126.077C174.307 126.765 174.846 127.808 174.991 128.88C175.068 130.262 174.731 131.435 173.854 132.526C173.079 133.355 171.987 133.866 170.857 133.929C169.546 133.944 168.332 133.574 167.353 132.66C166.393 131.623 166.028 130.419 166.08 129.026C166.153 127.989 166.713 126.861 167.472 126.157C169.315 124.647 171.593 124.658 173.466 126.077ZM167.768 126.545C166.954 127.379 166.542 128.371 166.528 129.536C166.596 130.662 166.997 131.626 167.81 132.419C168.683 133.173 169.712 133.531 170.866 133.461C171.994 133.329 172.924 132.857 173.669 131.994C174.33 131.142 174.606 130.149 174.538 129.076C174.386 127.88 173.817 126.913 172.866 126.176C171.261 125.091 169.209 125.277 167.768 126.545Z" fill="black"/>
<path d="M209.433 126.508C210.227 127.173 210.69 128.063 210.798 129.09C210.888 130.215 210.546 131.195 209.824 132.056C209.146 132.744 208.273 133.195 207.3 133.26C206.091 133.245 205.136 132.926 204.248 132.09C203.511 131.258 203.187 130.242 203.231 129.139C203.345 128.089 203.803 127.167 204.622 126.496C206.098 125.373 207.957 125.429 209.433 126.508ZM204.481 127.179C203.802 128.017 203.562 128.988 203.665 130.047C203.835 130.912 204.315 131.737 205.051 132.236C205.943 132.749 206.826 132.972 207.847 132.772C208.719 132.506 209.458 132.015 209.916 131.219C210.378 130.329 210.56 129.395 210.263 128.419C209.874 127.415 209.291 126.813 208.336 126.345C206.997 125.787 205.481 126.124 204.481 127.179Z" fill="black"/>
<path d="M245.126 126.79C245.274 126.895 245.409 127.007 245.544 127.128C245.589 127.167 245.634 127.205 245.68 127.244C246.224 127.74 246.525 128.424 246.59 129.154C246.6 130.11 246.44 130.862 245.763 131.579C245.13 132.218 244.436 132.546 243.524 132.555C242.722 132.551 242.061 132.339 241.458 131.798C241.413 131.76 241.368 131.721 241.322 131.682C240.779 131.186 240.477 130.502 240.412 129.772C240.403 128.876 240.529 128.099 241.166 127.42C242.22 126.357 243.786 125.989 245.126 126.79ZM241.431 127.58C240.906 128.218 240.673 128.933 240.729 129.755C240.815 130.525 241.191 131.182 241.787 131.672C242.452 132.131 243.15 132.316 243.953 132.216C244.652 132.087 245.33 131.698 245.741 131.11C246.186 130.385 246.38 129.698 246.223 128.848C246.043 128.115 245.595 127.498 244.956 127.106C243.782 126.429 242.381 126.581 241.431 127.58Z" fill="black"/>
<path d="M281.222 127.347C281.818 127.765 282.248 128.299 282.389 129.025C282.452 129.725 282.366 130.321 281.957 130.903C281.502 131.448 280.946 131.823 280.227 131.888C279.483 131.907 278.927 131.761 278.349 131.278C277.835 130.784 277.569 130.205 277.551 129.495C277.562 128.734 277.813 128.198 278.339 127.651C279.153 126.949 280.276 126.835 281.222 127.347ZM278.303 128.077C277.879 128.676 277.78 129.252 277.866 129.974C278.074 130.627 278.435 131.087 279.018 131.439C279.542 131.684 280.197 131.676 280.737 131.499C281.188 131.289 281.54 131.055 281.805 130.631C281.835 130.583 281.865 130.536 281.896 130.488C282.18 129.959 282.197 129.334 282.047 128.759C281.979 128.592 281.902 128.447 281.805 128.296C281.777 128.25 281.749 128.205 281.719 128.158C281.413 127.741 280.977 127.507 280.492 127.347C279.625 127.223 278.899 127.425 278.303 128.077Z" fill="black"/>
<path d="M8.7141 144.347C9.76356 145.137 10.263 146.125 10.4652 147.411C10.5948 148.4 10.1608 149.473 9.5768 150.249C8.74421 151.209 7.76767 151.645 6.51246 151.809C5.4784 151.86 4.41134 151.401 3.64334 150.735C2.79769 149.915 2.32483 148.893 2.26621 147.703C2.33408 146.427 2.88282 145.356 3.82318 144.51C5.27652 143.336 7.17612 143.396 8.7141 144.347Z" fill="black"/>
<path d="M45.1077 144.735C45.9483 145.442 46.4285 146.317 46.5806 147.411C46.6251 148.446 46.2901 149.395 45.6461 150.203C44.9721 150.936 43.9929 151.376 42.9985 151.433C41.9016 151.444 40.9548 151.019 40.1675 150.271C39.4829 149.55 39.1124 148.552 39.1289 147.56C39.1941 146.564 39.6251 145.598 40.3573 144.917C41.7645 143.807 43.6308 143.634 45.1077 144.735Z" fill="black"/>
<path d="M81.5341 145.163C82.2662 145.851 82.631 146.679 82.6935 147.68C82.7038 148.649 82.2882 149.477 81.6268 150.163C80.9312 150.806 80.0491 151.049 79.121 151.059C78.1874 150.974 77.4003 150.553 76.768 149.869C76.1773 149.14 75.9174 148.215 76.0017 147.286C76.1639 146.377 76.5786 145.614 77.3004 145.029C78.6129 144.126 80.2957 144.111 81.5341 145.163Z" fill="black"/>
<path d="M117.949 145.591C118.524 146.206 118.81 146.935 118.812 147.776C118.748 148.646 118.431 149.366 117.79 149.965C117.129 150.499 116.381 150.74 115.532 150.679C114.677 150.564 113.977 150.192 113.433 149.517C112.933 148.813 112.76 148.046 112.874 147.192C113.036 146.357 113.476 145.691 114.169 145.2C115.39 144.437 116.903 144.615 117.949 145.591Z" fill="black"/>
<path d="M153.833 145.587C153.909 145.64 153.986 145.693 154.065 145.747C154.615 146.296 154.915 147.001 154.927 147.776C154.869 148.52 154.581 149.144 154.052 149.673C153.359 150.157 152.673 150.41 151.826 150.284C151.202 150.154 150.582 149.814 150.212 149.284C149.756 148.551 149.584 147.877 149.762 147.025C149.978 146.288 150.443 145.76 151.102 145.387C151.305 145.282 151.495 145.204 151.717 145.149C151.791 145.131 151.864 145.113 151.94 145.095C152.64 145.05 153.256 145.187 153.833 145.587Z" fill="black"/>
<path d="M190.021 145.806C190.511 146.106 190.822 146.647 190.97 147.192C191.045 147.935 190.943 148.511 190.555 149.144C190.05 149.635 189.51 149.911 188.799 149.919C188.184 149.91 187.616 149.76 187.176 149.308C186.658 148.629 186.515 148.046 186.592 147.192C186.763 146.524 187.092 146.135 187.656 145.757C188.399 145.347 189.289 145.404 190.021 145.806Z" fill="black"/>
<path d="M226.209 146.098C226.633 146.418 226.976 146.729 227.085 147.265C227.135 147.95 227.068 148.423 226.62 148.962C226.289 149.322 225.987 149.506 225.497 149.542C224.793 149.553 224.374 149.404 223.855 148.926C223.501 148.564 223.426 148.213 223.419 147.721C223.427 147.143 223.53 146.794 223.925 146.367C224.546 145.794 225.463 145.653 226.209 146.098Z" fill="black"/>
<path d="M262.335 146.291C262.723 146.495 263.062 146.849 263.2 147.265C263.249 147.81 263.25 148.213 262.909 148.651C262.544 149.016 262.285 149.172 261.759 149.185C261.274 149.179 261.018 149.095 260.667 148.745C260.303 148.339 260.256 148.027 260.262 147.485C260.302 147.047 260.512 146.797 260.834 146.508C261.243 146.167 261.831 146.138 262.335 146.291Z" fill="black"/>
<path d="M298.586 146.609C298.939 146.779 299.146 146.985 299.316 147.338C299.374 147.703 299.358 147.98 299.197 148.314C298.961 148.576 298.771 148.768 298.411 148.825C297.997 148.844 297.736 148.793 297.419 148.506C297.132 148.188 297.081 147.928 297.099 147.513C297.157 147.153 297.349 146.964 297.611 146.727C297.944 146.566 298.222 146.55 298.586 146.609Z" fill="black"/>
<path d="M29.9567 159.571C31.8223 161.217 32.7662 163.248 32.953 165.716C33.006 167.298 32.5268 168.807 31.7696 170.174C31.7299 170.246 31.6903 170.318 31.6494 170.393C30.5885 172.178 28.7352 173.432 26.7627 173.996C24.6384 174.509 22.3685 174.262 20.4607 173.166C18.4892 171.95 17.0846 170.12 16.5209 167.876C16.0209 165.727 16.4129 163.619 17.4694 161.711C17.5091 161.639 17.5487 161.567 17.5896 161.493C18.6558 159.699 20.527 158.422 22.52 157.886C25.1193 157.233 27.9132 157.817 29.9567 159.571ZM19.8041 160.252C19.7528 160.291 19.7016 160.331 19.6488 160.371C18.2378 161.506 17.3988 163.375 17.1915 165.135C16.9997 167.203 17.6178 169.162 18.9286 170.758C18.9875 170.835 18.9875 170.835 19.0477 170.913C20.157 172.293 21.9733 173.121 23.6893 173.362C25.8068 173.543 27.787 172.994 29.4349 171.634C29.4924 171.588 29.5498 171.543 29.609 171.496C31.0399 170.307 31.8899 168.424 32.0615 166.599C32.1858 164.576 31.5977 162.695 30.3104 161.127C30.2711 161.076 30.2318 161.025 30.1913 160.972C29.082 159.593 27.2657 158.765 25.5497 158.524C23.428 158.342 21.4575 158.894 19.8041 160.252Z" fill="black"/>
<path d="M65.9061 160.133C67.4503 161.484 68.4512 163.297 68.6147 165.359C68.7301 167.363 68.138 169.344 66.8068 170.866C65.4581 172.354 63.6751 173.326 61.6484 173.451C61.5877 173.453 61.5271 173.455 61.4646 173.457C61.4032 173.46 61.3417 173.463 61.2785 173.466C59.1989 173.519 57.3213 172.708 55.8079 171.302C54.3576 169.859 53.6059 167.98 53.5575 165.943C53.6101 163.731 54.4961 161.826 56.0883 160.307C58.8355 157.896 63.0891 157.769 65.9061 160.133ZM56.0655 161.419C55.3343 162.25 54.8208 163.271 54.5333 164.338C54.517 164.396 54.5006 164.454 54.4837 164.513C54.0921 166.206 54.48 167.977 55.3245 169.462C56.2939 170.992 57.748 172.038 59.4946 172.509C59.5527 172.525 59.6107 172.542 59.6705 172.559C61.3632 172.95 63.1345 172.562 64.6196 171.718C66.1309 170.76 67.2277 169.291 67.6662 167.548C68.0794 165.671 67.764 163.823 66.736 162.204C65.6379 160.647 64.0525 159.604 62.1708 159.259C59.83 159.01 57.704 159.693 56.0655 161.419Z" fill="black"/>
<path d="M101.883 160.746C103.041 161.694 103.786 162.963 104.146 164.411C104.171 164.502 104.171 164.502 104.196 164.596C104.554 166.173 104.226 167.941 103.421 169.331C103.198 169.678 102.948 170.001 102.687 170.32C102.653 170.364 102.619 170.409 102.583 170.454C101.609 171.667 99.9879 172.438 98.4616 172.639C96.5662 172.835 94.7855 172.325 93.2876 171.145C91.9324 170.038 91.0552 168.417 90.8677 166.672C90.7555 164.682 91.2763 162.927 92.5838 161.401C94.9965 158.713 99.1014 158.56 101.883 160.746ZM93.4943 161.492C93.4442 161.535 93.3942 161.578 93.3426 161.623C92.2278 162.652 91.5894 164.255 91.522 165.749C91.5358 167.355 92.053 168.816 93.1295 170.028C93.1726 170.078 93.2158 170.128 93.2603 170.18C94.2973 171.303 95.8965 171.926 97.4048 172.001C99.0039 171.986 100.46 171.463 101.666 170.393C101.716 170.35 101.766 170.307 101.817 170.262C102.919 169.245 103.558 167.66 103.638 166.179C103.622 164.553 103.122 163.086 102.031 161.857C101.966 161.782 101.966 161.782 101.9 161.705C100.822 160.538 99.1916 159.95 97.6322 159.885C96.082 159.898 94.6502 160.466 93.4943 161.492Z" fill="black"/>
<path d="M137.626 161.161C138.829 162.115 139.728 163.431 139.952 164.978C140.031 166 139.999 166.935 139.678 167.912C139.645 168.014 139.645 168.014 139.612 168.118C139.116 169.487 137.923 170.727 136.614 171.342C135.135 171.929 133.615 172.067 132.09 171.56C132.013 171.535 131.937 171.509 131.857 171.483C130.477 170.964 129.283 169.833 128.666 168.495C128.318 167.68 128.122 166.887 128.128 165.997C128.128 165.93 128.129 165.864 128.129 165.795C128.158 164.141 128.836 162.723 130.005 161.573C130.351 161.247 130.725 160.992 131.142 160.762C131.201 160.729 131.26 160.696 131.321 160.661C133.304 159.599 135.827 159.839 137.626 161.161ZM130.558 161.93C130.505 161.977 130.451 162.024 130.395 162.072C129.28 163.111 128.771 164.486 128.707 165.993C128.737 167.326 129.229 168.529 130.12 169.518C130.164 169.567 130.207 169.617 130.251 169.669C131.206 170.704 132.498 171.161 133.873 171.285C135.37 171.345 136.65 170.751 137.759 169.784C138.86 168.75 139.35 167.381 139.414 165.892C139.384 164.559 138.892 163.356 138 162.368C137.957 162.318 137.914 162.268 137.869 162.216C136.866 161.127 135.462 160.651 134.01 160.589C132.728 160.618 131.515 161.074 130.558 161.93Z" fill="black"/>
<path d="M173.656 161.803C174.684 162.63 175.471 163.814 175.648 165.14C175.767 166.671 175.504 168.099 174.486 169.292C173.548 170.33 172.315 170.999 170.908 171.073C169.44 171.12 168.136 170.748 167.038 169.746C166.038 168.789 165.447 167.554 165.404 166.167C165.387 164.722 165.791 163.432 166.8 162.373C168.628 160.546 171.558 160.238 173.656 161.803ZM167.004 162.933C166.585 163.459 166.316 163.998 166.09 164.629C166.061 164.711 166.061 164.711 166.031 164.794C165.706 165.94 165.967 167.224 166.523 168.244C167.177 169.375 168.167 170.062 169.401 170.447C170.7 170.768 171.963 170.478 173.094 169.81C174.123 169.115 174.759 168.128 175.092 166.941C175.308 165.722 175.105 164.421 174.407 163.389C173.69 162.367 172.637 161.59 171.386 161.364C169.702 161.204 168.166 161.639 167.004 162.933Z" fill="black"/>
<path d="M209.769 162.516C210.8 163.398 211.249 164.49 211.419 165.812C211.427 165.958 211.417 166.09 211.399 166.235C211.389 166.313 211.379 166.391 211.369 166.472C211.172 167.703 210.597 168.754 209.584 169.504C208.767 170.037 207.723 170.444 206.729 170.32C206.612 170.306 206.612 170.306 206.492 170.291C205.261 170.094 204.21 169.518 203.46 168.505C202.786 167.474 202.524 166.364 202.716 165.14C202.981 163.938 203.605 162.938 204.644 162.26C206.276 161.295 208.246 161.351 209.769 162.516ZM204.03 163.389C203.281 164.376 203.057 165.381 203.154 166.599C203.333 167.571 203.866 168.478 204.657 169.078C205.684 169.759 206.795 169.993 208.01 169.76C209.115 169.413 209.979 168.712 210.523 167.694C210.946 166.789 211.073 165.701 210.769 164.734C210.337 163.649 209.635 162.839 208.569 162.347C206.971 161.69 205.204 162.126 204.03 163.389Z" fill="black"/>
<path d="M245.828 163.195C246.543 163.859 246.995 164.663 247.076 165.651C247.084 165.74 247.084 165.74 247.092 165.832C247.129 166.737 246.815 167.571 246.249 168.269C245.585 168.985 244.781 169.437 243.793 169.518C243.733 169.523 243.674 169.528 243.612 169.533C242.707 169.57 241.872 169.256 241.175 168.69C240.447 168.015 239.986 167.177 239.911 166.177C239.875 165.103 240.218 164.194 240.947 163.407C242.313 162.107 244.352 161.997 245.828 163.195ZM241.207 163.649C240.549 164.383 240.247 165.334 240.295 166.312C240.42 167.2 240.905 167.96 241.586 168.525C242.289 169.026 243.117 169.214 243.971 169.121C244.766 168.97 245.573 168.579 246.055 167.913C246.575 167.075 246.823 166.226 246.635 165.238C246.398 164.406 245.984 163.704 245.238 163.246C243.905 162.506 242.364 162.611 241.207 163.649Z" fill="black"/>
<path d="M281.486 163.581C282.169 164.071 282.584 164.68 282.754 165.505C282.828 166.312 282.674 167.074 282.147 167.708C281.591 168.304 281.006 168.644 280.184 168.733C279.476 168.756 278.762 168.571 278.214 168.109C277.626 167.549 277.267 166.965 277.194 166.14C277.177 165.278 277.427 164.591 278.014 163.959C278.963 163.05 280.361 162.888 281.486 163.581ZM277.834 164.625C277.477 165.324 277.395 165.989 277.606 166.745C277.829 167.362 278.3 167.905 278.887 168.204C279.617 168.496 280.264 168.507 281.005 168.238C281.651 167.92 282.14 167.369 282.371 166.691C282.56 165.99 282.493 165.356 282.17 164.702C281.69 164.038 281.151 163.628 280.346 163.462C279.277 163.32 278.494 163.829 277.834 164.625Z" fill="black"/>
<path d="M9.68082 180.867C10.6252 181.83 11.0602 183.058 11.0488 184.401C10.9647 185.703 10.3842 186.82 9.44968 187.715C8.46639 188.572 7.20264 188.919 5.91366 188.836C4.62577 188.674 3.47294 188.042 2.65837 187.028C1.90092 185.978 1.57923 184.724 1.75548 183.439C2.01424 182.175 2.69143 181.014 3.77928 180.292C5.67674 179.115 8.05484 179.295 9.68082 180.867Z" fill="black"/>
<path d="M45.2673 180.68C46.2973 181.485 46.8884 182.449 47.0913 183.745C47.2091 184.821 46.8742 185.934 46.2107 186.783C45.3667 187.762 44.375 188.296 43.0836 188.437C41.968 188.483 40.9083 188.093 40.0689 187.37C39.1585 186.505 38.6476 185.464 38.596 184.196C38.6339 182.951 39.1264 181.909 40.0142 181.045C41.4484 179.734 43.6661 179.565 45.2673 180.68Z" fill="black"/>
<path d="M81.5287 181.045C82.3486 181.686 82.979 182.544 83.1338 183.599C83.215 184.802 82.9621 185.821 82.1671 186.75C81.512 187.447 80.6311 187.929 79.6659 187.994C78.4502 188.016 77.4814 187.676 76.5885 186.837C75.8065 186.024 75.506 185.012 75.5254 183.906C75.5733 182.854 76.1188 181.977 76.8592 181.264C78.1871 180.164 80.1093 180.049 81.5287 181.045Z" fill="black"/>
<path d="M117.566 181.247C118.335 181.777 118.96 182.48 119.156 183.421C119.282 184.507 119.151 185.457 118.456 186.339C117.84 187.043 117.086 187.49 116.141 187.557C115.103 187.599 114.28 187.359 113.485 186.663C112.869 186.081 112.488 185.32 112.439 184.468C112.415 183.344 112.697 182.53 113.481 181.697C114.564 180.683 116.293 180.481 117.566 181.247Z" fill="black"/>
<path d="M154.43 182.071C155.004 182.686 155.291 183.415 155.292 184.255C155.228 185.126 154.911 185.846 154.27 186.444C153.609 186.978 152.862 187.22 152.012 187.158C151.157 187.043 150.458 186.671 149.913 185.997C149.414 185.293 149.24 184.526 149.355 183.672C149.516 182.836 149.957 182.17 150.65 181.679C151.87 180.917 153.383 181.094 154.43 182.071Z" fill="black"/>
<path d="M190.213 182.031C190.865 182.504 191.192 183.105 191.334 183.891C191.409 184.555 191.202 185.243 190.81 185.783C190.262 186.416 189.61 186.675 188.79 186.768C188.066 186.732 187.39 186.45 186.884 185.933C186.441 185.418 186.168 184.742 186.202 184.053C186.321 183.284 186.587 182.666 187.18 182.156C188.103 181.481 189.23 181.466 190.213 182.031Z" fill="black"/>
<path d="M226.428 182.358C226.918 182.729 227.254 183.213 227.377 183.818C227.43 184.406 227.37 184.911 227.018 185.397C226.587 185.904 226.143 186.242 225.466 186.316C224.897 186.333 224.384 186.227 223.924 185.878C223.489 185.468 223.184 184.985 223.13 184.382C223.115 183.612 223.31 183.15 223.845 182.59C224.581 181.927 225.575 181.904 226.428 182.358Z" fill="black"/>
<path d="M262.494 182.614C262.885 182.844 263.177 183.186 263.378 183.59C263.475 184.124 263.482 184.651 263.2 185.131C262.921 185.49 262.623 185.737 262.179 185.86C261.64 185.92 261.161 185.909 260.72 185.569C260.372 185.239 260.098 184.92 260.041 184.429C260.039 183.832 260.104 183.402 260.519 182.956C261.058 182.465 261.811 182.315 262.494 182.614Z" fill="black"/>
<path d="M299.088 183.202C299.358 183.461 299.486 183.739 299.535 184.109C299.523 184.534 299.378 184.865 299.085 185.171C298.796 185.4 298.493 185.501 298.124 185.491C297.706 185.423 297.391 185.245 297.127 184.912C296.944 184.586 296.88 184.288 296.94 183.918C297.059 183.51 297.271 183.212 297.644 183.003C298.168 182.793 298.637 182.863 299.088 183.202Z" fill="black"/>
<path d="M24.2878 192.999C26.5898 192.944 29.014 193.677 30.7254 195.259C30.8558 195.383 30.9851 195.51 31.113 195.637C31.1742 195.698 31.2354 195.759 31.2985 195.822C31.3577 195.881 31.4168 195.941 31.4778 196.002C31.5329 196.056 31.588 196.111 31.6448 196.167C33.311 197.897 34.0937 200.354 34.0497 202.727C33.9825 203.753 33.8136 204.743 33.4477 205.705C33.4297 205.753 33.4116 205.801 33.393 205.85C32.9212 207.064 32.2499 208.068 31.3319 208.988C31.269 209.052 31.2062 209.115 31.1415 209.18C29.3884 210.919 27.0643 211.799 24.6104 211.848C22.1783 211.822 19.8542 210.93 18.126 209.207C18.0648 209.146 18.0036 209.085 17.9405 209.023C17.8813 208.963 17.8222 208.904 17.7612 208.843C17.7061 208.788 17.651 208.734 17.5942 208.678C16.005 207.027 15.3528 204.875 15.2076 202.641C15.2022 202.568 15.1969 202.495 15.1913 202.419C15.108 200.139 16.1005 197.93 17.5423 196.221C17.5797 196.174 17.617 196.128 17.6555 196.08C17.9279 195.749 18.2312 195.47 18.5638 195.199C18.6251 195.149 18.6864 195.099 18.7496 195.047C20.3439 193.794 22.2638 193.091 24.2878 192.999ZM21.0444 194.762C21.0001 194.782 20.9558 194.802 20.9101 194.823C18.9724 195.725 17.4681 197.439 16.6987 199.422C15.9671 201.508 15.9534 203.829 16.8841 205.861C17.8894 207.938 19.5223 209.548 21.7011 210.375C23.9448 211.124 26.2932 211.023 28.4288 209.984C28.9755 209.705 29.4704 209.376 29.9456 208.988C29.9833 208.958 30.0209 208.927 30.0597 208.896C31.4046 207.78 32.3351 206.296 32.7911 204.611C32.8258 204.495 32.8258 204.495 32.8612 204.377C33.4004 202.252 32.9584 200.009 31.909 198.127C30.6648 196.091 28.7588 194.736 26.4592 194.174C24.666 193.746 22.7042 193.99 21.0444 194.762Z" fill="black"/>
<path d="M67.0958 196.342C68.6794 197.884 69.5641 200.045 69.6359 202.244C69.6653 204.659 68.7115 206.822 67.0461 208.546C65.4954 210.098 63.2964 210.933 61.1175 210.96C58.7018 210.935 56.564 209.955 54.8647 208.257C53.3466 206.675 52.5416 204.455 52.5634 202.276C52.6449 199.865 53.6413 197.745 55.3798 196.076C58.7316 193.002 63.8686 193.325 67.0958 196.342ZM55.6277 197.096C55.5647 197.157 55.5017 197.219 55.4368 197.282C54.0587 198.699 53.4143 200.688 53.4389 202.641C53.5314 204.692 54.3441 206.444 55.7737 207.894C55.8306 207.952 55.8875 208.01 55.9461 208.069C57.372 209.433 59.3582 210.123 61.3187 210.083C63.579 209.976 65.4979 208.971 67.0096 207.31C67.1968 207.076 67.3613 206.835 67.5203 206.581C67.5629 206.515 67.6055 206.449 67.6494 206.382C68.7313 204.635 68.966 202.585 68.5417 200.598C68.0912 198.741 66.8919 197.008 65.2585 196.002C65.193 195.959 65.1274 195.917 65.0599 195.873C64.1502 195.309 63.1765 194.992 62.1212 194.834C62.0096 194.817 62.0096 194.817 61.8958 194.8C59.5413 194.534 57.2779 195.451 55.6277 197.096Z" fill="black"/>
<path d="M102.083 196.239C103.781 197.551 104.851 199.35 105.168 201.474C105.307 203.662 104.827 205.727 103.364 207.411C102.084 208.836 100.274 209.899 98.3255 210.023C95.9966 210.073 93.974 209.528 92.2539 207.894C91.07 206.737 90.4053 205.339 90.0651 203.735C90.0523 203.678 90.0396 203.621 90.0264 203.563C89.7062 201.767 90.1753 199.785 91.1595 198.263C92.4362 196.467 94.222 195.242 96.4143 194.863C98.4027 194.598 100.455 195.046 102.083 196.239ZM92.6187 197.68C91.4005 198.974 90.7628 200.639 90.7719 202.408C90.7723 202.492 90.7727 202.576 90.7732 202.662C90.7991 204.47 91.5648 206.103 92.8376 207.383C94.2986 208.76 96.0866 209.261 98.0566 209.23C99.7961 209.169 101.414 208.335 102.614 207.091C103.183 206.448 103.579 205.757 103.928 204.976C103.958 204.909 103.989 204.843 104.021 204.774C104.675 203.199 104.526 201.336 103.904 199.779C103.178 198.071 101.845 196.775 100.134 196.075C97.4666 195.082 94.6348 195.655 92.6187 197.68Z" fill="black"/>
<path d="M138.363 197.225C139.712 198.33 140.586 199.955 140.773 201.693C140.885 203.683 140.364 205.438 139.057 206.964C137.949 208.198 136.298 209.049 134.631 209.143C132.639 209.211 130.899 208.657 129.401 207.313C128.151 206.137 127.404 204.466 127.332 202.754C127.285 200.97 127.824 199.425 128.953 198.045C128.987 198 129.022 197.956 129.057 197.911C130.033 196.695 131.653 195.929 133.182 195.725C135.086 195.529 136.858 196.043 138.363 197.225ZM129.975 197.972C129.924 198.015 129.874 198.058 129.823 198.102C128.721 199.119 128.083 200.704 128.002 202.185C128.018 203.811 128.518 205.279 129.61 206.508C129.653 206.558 129.696 206.608 129.741 206.659C130.818 207.827 132.449 208.415 134.008 208.48C135.558 208.467 136.99 207.899 138.146 206.873C138.196 206.829 138.246 206.786 138.298 206.742C139.391 205.733 140.046 204.145 140.118 202.678C140.104 201.044 139.608 199.572 138.511 198.336C138.446 198.261 138.446 198.261 138.38 198.185C137.343 197.062 135.744 196.439 134.236 196.364C132.637 196.379 131.18 196.901 129.975 197.972Z" fill="black"/>
<path d="M174.189 197.826C175.504 198.951 176.262 200.446 176.398 202.171C176.441 203.741 175.886 205.291 174.804 206.437C173.656 207.608 172.176 208.24 170.541 208.286C168.911 208.24 167.43 207.611 166.283 206.448C165.198 205.298 164.639 203.743 164.684 202.171C164.806 200.596 165.43 199.325 166.528 198.191C166.577 198.139 166.627 198.088 166.677 198.035C168.69 196.099 172.044 196.149 174.189 197.826ZM168.863 197.461C168.79 197.486 168.718 197.511 168.644 197.536C168.091 197.745 167.645 198.043 167.184 198.409C167.123 198.457 167.061 198.504 166.997 198.552C165.975 199.412 165.45 200.728 165.312 202.027C165.202 203.393 165.638 204.619 166.455 205.705C166.485 205.748 166.516 205.791 166.547 205.836C167.339 206.882 168.686 207.456 169.952 207.634C171.487 207.811 172.853 207.263 174.049 206.333C174.978 205.504 175.628 204.278 175.737 203.037C175.823 201.516 175.504 200.164 174.48 198.993C174.306 198.8 174.306 198.8 174.116 198.628C174.053 198.569 174.053 198.569 173.989 198.508C172.822 197.437 171.464 197.19 169.927 197.232C169.551 197.252 169.215 197.332 168.863 197.461Z" fill="black"/>
<path d="M210.391 198.779C211.422 199.738 211.909 201.02 211.979 202.411C212.003 203.725 211.444 204.951 210.563 205.902C209.603 206.878 208.304 207.369 206.948 207.383C205.521 207.302 204.281 206.75 203.3 205.705C202.85 205.146 202.513 204.563 202.278 203.881C202.261 203.832 202.244 203.783 202.227 203.733C201.855 202.472 202.104 201.078 202.721 199.942C203.453 198.755 204.508 197.968 205.854 197.593C207.497 197.227 209.133 197.671 210.391 198.779ZM204.014 199.127C203.1 199.985 202.623 201.168 202.571 202.408C202.566 203.596 203.047 204.708 203.864 205.562C204.749 206.434 205.934 206.868 207.167 206.873C208.353 206.822 209.432 206.318 210.263 205.477C210.544 205.163 210.762 204.835 210.961 204.465C210.99 204.415 211.019 204.364 211.049 204.312C211.565 203.31 211.552 202.128 211.252 201.067C210.81 199.825 210.027 198.941 208.837 198.375C207.165 197.679 205.407 197.97 204.014 199.127Z" fill="black"/>
<path d="M245.106 198.701C245.185 198.732 245.185 198.732 245.266 198.763C246.169 199.157 246.85 199.941 247.252 200.824C247.647 201.874 247.657 203.06 247.222 204.1C247.072 204.385 246.903 204.645 246.711 204.903C246.677 204.951 246.642 204.999 246.607 205.048C246.029 205.786 245.074 206.285 244.158 206.435C242.987 206.544 241.979 206.342 241.02 205.632C240.974 205.6 240.928 205.568 240.881 205.535C240.129 204.964 239.632 203.997 239.488 203.079C239.417 201.894 239.568 200.919 240.291 199.942C240.339 199.872 240.339 199.872 240.388 199.802C241.468 198.379 243.522 198.055 245.106 198.701ZM241.969 199.139C241.907 199.17 241.845 199.201 241.782 199.233C240.893 199.72 240.324 200.451 240.013 201.41C239.748 202.414 239.864 203.364 240.387 204.266C240.93 205.134 241.669 205.697 242.666 205.958C242.725 205.971 242.784 205.984 242.844 205.997C242.927 206.015 242.927 206.015 243.011 206.034C243.821 206.162 244.796 205.948 245.471 205.486C246.245 204.883 246.866 204.133 247.076 203.152C247.132 202.446 247.156 201.689 246.857 201.036C246.829 200.971 246.8 200.907 246.771 200.84C246.284 199.848 245.515 199.328 244.523 198.92C243.726 198.69 242.698 198.76 241.969 199.139Z" fill="black"/>
<path d="M281.951 199.941C282.549 200.426 283.035 201.131 283.119 201.911C283.187 202.947 282.991 203.74 282.332 204.552C281.777 205.151 281.068 205.521 280.255 205.575C279.245 205.602 278.449 205.327 277.701 204.634C277.02 203.913 276.809 203.129 276.826 202.164C276.887 201.314 277.304 200.582 277.919 200.001C279.137 199.024 280.698 199.037 281.951 199.941ZM277.792 200.624C277.232 201.378 277.129 202.086 277.209 203.006C277.362 203.743 277.768 204.303 278.367 204.748C279.117 205.231 279.923 205.328 280.796 205.147C281.649 204.868 282.203 204.292 282.615 203.511C282.873 202.882 282.848 202.043 282.64 201.405C282.304 200.624 281.709 200.051 280.921 199.727C279.77 199.401 278.57 199.711 277.792 200.624Z" fill="black"/>
<path d="M10.1733 217.014C11.1801 218.16 11.6959 219.547 11.6191 221.074C11.5145 222.103 11.1537 223.041 10.5381 223.872C10.5001 223.923 10.4621 223.975 10.423 224.028C9.58476 225.065 8.30079 225.681 7.00152 225.881C5.61155 226.017 4.28825 225.65 3.1691 224.82C3.11775 224.783 3.0664 224.745 3.01349 224.705C1.9759 223.867 1.36034 222.583 1.16012 221.284C1.02379 219.894 1.39134 218.571 2.22061 217.452C2.25861 217.4 2.29661 217.349 2.33575 217.296C3.19208 216.236 4.53369 215.598 5.86864 215.422C7.50742 215.319 8.99069 215.874 10.1733 217.014Z" fill="black"/>
<path d="M45.7772 216.886C45.9567 217.043 46.1237 217.206 46.2888 217.379C46.334 217.422 46.3793 217.465 46.4259 217.509C47.264 218.362 47.6427 219.627 47.6327 220.796C47.5844 222.088 47.0607 223.183 46.1429 224.091C46.0998 224.137 46.0567 224.182 46.0123 224.229C45.1846 225.038 43.9904 225.399 42.8596 225.432C41.5236 225.393 40.356 224.912 39.4305 223.945C39.3852 223.902 39.34 223.859 39.2934 223.815C38.4552 222.962 38.0765 221.697 38.0865 220.528C38.1349 219.236 38.6586 218.141 39.5764 217.233C39.641 217.165 39.641 217.165 39.7069 217.095C41.3295 215.508 44.026 215.572 45.7772 216.886Z" fill="black"/>
<path d="M82.4225 217.648C83.2742 218.543 83.6558 219.654 83.6446 220.881C83.5593 222.087 83.0138 223.11 82.1492 223.938C81.2302 224.709 80.0846 225.035 78.8953 224.95C77.699 224.787 76.6846 224.21 75.9108 223.288C75.2221 222.318 74.9188 221.185 75.0808 220.001C75.317 218.832 75.926 217.786 76.9114 217.094C78.7222 215.971 80.8702 216.191 82.4225 217.648Z" fill="black"/>
<path d="M118.009 217.525C118.828 218.165 119.355 218.941 119.6 219.96C119.605 220.047 119.609 220.134 119.614 220.224C119.621 220.335 119.621 220.335 119.628 220.449C119.665 221.518 119.339 222.42 118.647 223.229C117.992 223.926 117.111 224.408 116.146 224.473C114.931 224.496 113.962 224.155 113.069 223.316C112.287 222.503 111.986 221.492 112.006 220.386C112.054 219.333 112.599 218.456 113.34 217.744C114.667 216.644 116.59 216.529 118.009 217.525Z" fill="black"/>
<path d="M154.495 218.122C155.227 218.81 155.592 219.638 155.654 220.639C155.664 221.608 155.249 222.436 154.587 223.122C153.892 223.765 153.01 224.008 152.082 224.018C151.148 223.933 150.361 223.512 149.729 222.828C149.138 222.099 148.878 221.174 148.962 220.245C149.124 219.336 149.539 218.573 150.261 217.987C151.573 217.085 153.256 217.07 154.495 218.122Z" fill="black"/>
<path d="M190.441 218.304C191.049 218.738 191.483 219.415 191.626 220.151C191.7 221.096 191.519 221.9 190.897 222.632C190.206 223.29 189.476 223.536 188.538 223.527C187.83 223.474 187.156 223.14 186.667 222.627C186.044 221.867 185.862 221.123 185.935 220.151C186.108 219.381 186.512 218.754 187.148 218.291C188.21 217.619 189.373 217.658 190.441 218.304Z" fill="black"/>
<path d="M226.811 218.779C227.328 219.307 227.65 219.897 227.676 220.647C227.638 221.319 227.426 221.936 226.939 222.413C226.39 222.864 225.79 223.105 225.074 223.065C224.403 222.976 223.831 222.73 223.394 222.199C222.967 221.614 222.789 220.996 222.884 220.275C223.029 219.595 223.317 219.092 223.884 218.678C224.837 218.079 225.891 218.159 226.811 218.779Z" fill="black"/>
<path d="M262.567 218.911C263.083 219.205 263.475 219.648 263.638 220.224C263.716 220.837 263.636 221.323 263.273 221.829C262.915 222.227 262.521 222.515 261.978 222.584C261.359 222.615 260.887 222.476 260.423 222.058C259.971 221.572 259.795 221.111 259.815 220.447C259.892 219.866 260.191 219.444 260.645 219.086C261.23 218.68 261.914 218.616 262.567 218.911Z" fill="black"/>
<path d="M299.097 219.495C299.42 219.792 299.611 220.074 299.681 220.516C299.679 220.95 299.581 221.33 299.279 221.657C298.965 221.948 298.664 222.122 298.221 222.121C297.764 222.081 297.424 221.932 297.109 221.592C296.843 221.259 296.739 220.937 296.776 220.511C296.857 220.04 297.058 219.736 297.427 219.441C297.957 219.086 298.581 219.158 299.097 219.495Z" fill="black"/>
<path d="M24.0369 228.39C26.7078 228.299 29.386 229.077 31.4048 230.876C31.466 230.929 31.5271 230.981 31.5901 231.035C33.617 232.801 34.894 235.331 35.1152 238.014C35.3028 240.817 34.4785 243.545 32.6452 245.687C32.5943 245.747 32.5434 245.806 32.491 245.868C31.8245 246.63 31.0865 247.255 30.2375 247.803C30.1678 247.848 30.0981 247.893 30.0263 247.939C27.7031 249.366 24.8096 249.761 22.1695 249.145C20.546 248.731 19.1083 248.018 17.8342 246.927C17.7444 246.851 17.7444 246.851 17.6529 246.773C15.5438 244.929 14.3227 242.362 14.1238 239.582C13.9534 236.856 14.8163 234.193 16.5938 232.116C16.6447 232.057 16.6956 231.997 16.748 231.935C17.4127 231.175 18.148 230.541 19.0015 230.001C19.0445 229.973 19.0874 229.946 19.1316 229.918C20.362 229.147 21.733 228.703 23.1603 228.468C23.2253 228.457 23.2903 228.446 23.3572 228.435C23.5837 228.405 23.8088 228.399 24.0369 228.39ZM17.6546 232.492C15.8102 234.563 15.0875 237.039 15.2076 239.777C15.3817 241.898 16.3398 243.839 17.7612 245.395C17.8134 245.453 17.8656 245.511 17.9194 245.571C19.4428 247.186 21.7254 248.219 23.9389 248.322C24.9157 248.35 25.8552 248.318 26.8083 248.094C26.8603 248.082 26.9122 248.07 26.9657 248.058C29.3862 247.469 31.4109 245.836 32.7347 243.758C33.9872 241.671 34.3886 239.082 33.8125 236.713C33.1515 234.134 31.5732 232.041 29.2933 230.682C25.4562 228.477 20.6865 229.383 17.6546 232.492Z" fill="black"/>
<path d="M66.9366 231.387C66.9769 231.419 67.0173 231.451 67.0588 231.485C67.6507 231.961 68.1582 232.453 68.6147 233.065C68.663 233.126 68.7114 233.187 68.7612 233.25C70.3191 235.275 70.8565 237.863 70.5319 240.372C70.2814 241.959 69.6241 243.489 68.6147 244.738C68.5824 244.779 68.5502 244.819 68.5169 244.86C68.0402 245.452 67.5485 245.96 66.9366 246.416C66.8756 246.465 66.8145 246.513 66.7516 246.563C64.7264 248.121 62.138 248.658 59.6289 248.333C58.0422 248.083 56.5123 247.426 55.2629 246.416C55.2226 246.384 55.1823 246.352 55.1407 246.319C54.5488 245.842 54.0413 245.35 53.5848 244.738C53.5365 244.677 53.4881 244.616 53.4383 244.553C51.8805 242.528 51.343 239.94 51.6676 237.431C51.9182 235.844 52.5754 234.314 53.5848 233.065C53.6332 233.004 53.6332 233.004 53.6826 232.943C54.1593 232.351 54.651 231.843 55.2629 231.387C55.324 231.338 55.385 231.29 55.4479 231.24C58.7545 228.697 63.6967 228.769 66.9366 231.387ZM55.6277 232.335C55.5605 232.391 55.4932 232.446 55.424 232.503C53.7982 233.906 52.8354 235.927 52.5816 238.044C52.5736 238.16 52.5676 238.275 52.5634 238.391C52.5605 238.467 52.5576 238.542 52.5545 238.621C52.5093 240.988 53.3686 243.19 54.9944 244.905C56.6038 246.545 58.7956 247.398 61.077 247.461C63.1153 247.421 65.0002 246.775 66.5718 245.468C66.6391 245.413 66.7063 245.357 66.7756 245.3C68.3668 243.927 69.3897 241.894 69.6179 239.809C69.6259 239.677 69.6318 239.545 69.6362 239.412C69.6399 239.327 69.6437 239.241 69.6476 239.153C69.6976 237.047 69.0142 235.05 67.6662 233.43C67.5833 233.329 67.5833 233.329 67.4986 233.226C66.0967 231.602 64.0835 230.646 61.9707 230.384C61.8508 230.375 61.7307 230.37 61.6105 230.365C61.5203 230.362 61.4301 230.358 61.3372 230.354C59.2411 230.294 57.2398 230.995 55.6277 232.335Z" fill="black"/>
<path d="M102.541 231.971C102.605 232.017 102.669 232.063 102.735 232.111C104.57 233.513 105.709 235.521 106.043 237.807C106.335 240.139 105.655 242.386 104.233 244.237C102.736 246.033 100.723 247.145 98.3786 247.399C96.0824 247.607 93.8366 246.881 92.0707 245.409C90.3011 243.846 89.2293 241.778 89.0573 239.399C88.9359 237.108 89.7161 234.926 91.2325 233.211C92.7636 231.51 94.8912 230.502 97.1845 230.37C99.1142 230.333 100.972 230.828 102.541 231.971ZM91.8774 233.783C91.6033 234.082 91.3723 234.398 91.1595 234.743C91.1171 234.808 91.0747 234.874 91.031 234.942C89.9685 236.654 89.7096 238.689 90.1247 240.641C90.5949 242.547 91.7432 244.27 93.4213 245.322C93.487 245.365 93.5528 245.407 93.6205 245.451C95.3671 246.533 97.417 246.768 99.4041 246.343C100.792 246.007 101.951 245.272 102.979 244.301C103.026 244.258 103.072 244.215 103.12 244.171C103.471 243.839 103.739 243.465 104.001 243.06C104.044 242.994 104.087 242.928 104.131 242.86C105.195 241.137 105.437 239.124 105.038 237.162C104.68 235.69 103.965 234.503 102.906 233.43C102.849 233.372 102.792 233.314 102.734 233.254C101.332 231.914 99.398 231.226 97.472 231.235C95.3046 231.309 93.3621 232.219 91.8774 233.783Z" fill="black"/>
<path d="M138.867 233.092C140.411 234.442 141.412 236.256 141.575 238.318C141.691 240.321 141.098 242.303 139.767 243.825C138.419 245.313 136.636 246.285 134.609 246.41C134.548 246.412 134.488 246.414 134.425 246.416C134.364 246.419 134.302 246.422 134.239 246.425C132.159 246.478 130.282 245.667 128.768 244.261C127.318 242.818 126.566 240.939 126.518 238.902C126.571 236.69 127.457 234.785 129.049 233.265C131.796 230.855 136.05 230.728 138.867 233.092ZM129.026 234.378C128.295 235.209 127.781 236.23 127.494 237.296C127.477 237.354 127.461 237.412 127.444 237.472C127.053 239.165 127.441 240.936 128.285 242.421C129.254 243.951 130.709 244.997 132.455 245.468C132.513 245.484 132.571 245.501 132.631 245.517C134.324 245.909 136.095 245.521 137.58 244.677C139.091 243.719 140.188 242.25 140.627 240.507C141.04 238.63 140.724 236.782 139.697 235.162C138.598 233.606 137.013 232.563 135.131 232.218C132.791 231.969 130.665 232.652 129.026 234.378Z" fill="black"/>
<path d="M174.786 233.922C176.102 235.062 176.913 236.683 177.048 238.419C177.14 240.11 176.675 241.808 175.529 243.092C175.424 243.204 175.317 243.315 175.21 243.425C175.151 243.488 175.093 243.551 175.032 243.617C173.575 244.967 171.908 245.473 169.943 245.408C168.336 245.304 166.788 244.46 165.691 243.309C164.464 241.878 163.941 240.159 164.031 238.295C164.167 236.61 165.052 234.979 166.327 233.886C168.881 231.901 172.255 231.898 174.786 233.922ZM167.987 233.649C167.92 233.679 167.854 233.71 167.785 233.741C167.204 234.029 166.763 234.436 166.309 234.889C166.255 234.94 166.202 234.991 166.147 235.043C165.318 235.891 164.755 237.208 164.704 238.391C164.7 238.464 164.696 238.537 164.692 238.612C164.665 239.621 164.843 240.545 165.287 241.455C165.318 241.522 165.349 241.588 165.38 241.657C165.668 242.238 166.075 242.679 166.528 243.133C166.579 243.187 166.63 243.24 166.682 243.295C167.528 244.123 168.851 244.688 170.03 244.738C170.113 244.743 170.196 244.748 170.281 244.752C171.916 244.802 173.406 244.236 174.606 243.118C175.764 241.991 176.363 240.513 176.405 238.902C176.381 238 176.19 237.161 175.794 236.348C175.763 236.282 175.733 236.215 175.701 236.147C175.414 235.566 175.006 235.124 174.553 234.67C174.477 234.59 174.477 234.59 174.399 234.508C173.552 233.679 172.234 233.116 171.051 233.065C170.978 233.061 170.905 233.057 170.83 233.054C169.822 233.026 168.897 233.205 167.987 233.649Z" fill="black"/>
<path d="M210.218 234.374C210.399 234.515 210.571 234.662 210.742 234.816C210.792 234.859 210.842 234.902 210.893 234.947C211.786 235.77 212.411 237.013 212.509 238.225C212.576 239.907 212.263 241.34 211.107 242.622C211.042 242.697 211.042 242.697 210.976 242.774C210.153 243.667 208.91 244.291 207.697 244.39C206.015 244.457 204.582 244.144 203.3 242.987C203.25 242.944 203.2 242.901 203.149 242.856C202.255 242.033 201.631 240.79 201.533 239.578C201.466 237.896 201.779 236.463 202.935 235.181C202.978 235.131 203.021 235.081 203.066 235.029C204.883 233.057 208.064 232.884 210.218 234.374ZM203.552 235.36C202.585 236.364 202.05 237.595 202.062 238.992C202.128 240.444 202.703 241.653 203.765 242.641C204.829 243.543 206.123 243.926 207.505 243.848C208.853 243.686 210.067 243.023 210.921 241.963C211.288 241.466 211.562 240.946 211.763 240.361C211.78 240.313 211.797 240.264 211.815 240.215C212.16 239.063 211.991 237.779 211.471 236.713C210.803 235.48 209.859 234.642 208.526 234.157C206.724 233.678 204.921 234.076 203.552 235.36Z" fill="black"/>
<path d="M246.249 235.267C247.282 236.074 247.839 237.183 248.025 238.464C248.134 239.64 247.774 240.831 247.047 241.762C246.167 242.774 245.048 243.322 243.715 243.446C242.504 243.483 241.344 243.06 240.432 242.267C239.503 241.355 238.99 240.208 238.95 238.902C238.993 237.601 239.515 236.435 240.454 235.535C242.128 234.103 244.458 233.99 246.249 235.267ZM241.02 235.691C240.973 235.726 240.925 235.76 240.875 235.796C240.133 236.378 239.658 237.33 239.488 238.245C239.366 239.407 239.588 240.435 240.291 241.382C240.325 241.43 240.36 241.478 240.395 241.527C240.977 242.27 241.929 242.745 242.844 242.914C244.033 243.038 245.094 242.77 246.07 242.069C246.854 241.43 247.425 240.414 247.53 239.404C247.594 238.203 247.32 237.132 246.547 236.184C245.857 235.444 244.848 234.916 243.831 234.864C242.743 234.843 241.913 235.038 241.02 235.691Z" fill="black"/>
<path d="M281.856 235.884C282.019 236.007 282.168 236.135 282.316 236.275C282.386 236.337 282.386 236.337 282.456 236.401C283.127 237.03 283.474 237.823 283.522 238.745C283.539 239.688 283.264 240.542 282.608 241.236C282.567 241.282 282.525 241.329 282.482 241.376C281.8 242.104 280.943 242.407 279.95 242.445C279.07 242.417 278.293 242.137 277.647 241.528C277.6 241.487 277.554 241.447 277.506 241.405C276.897 240.843 276.539 240.042 276.451 239.222C276.418 238.133 276.709 237.291 277.424 236.478C278.578 235.261 280.415 235.004 281.856 235.884ZM277.939 236.494C277.893 236.53 277.847 236.567 277.8 236.605C277.216 237.128 276.891 237.908 276.826 238.68C276.79 239.633 277.09 240.419 277.733 241.118C278.421 241.786 279.212 242.069 280.158 242.059C281.15 241.982 281.895 241.522 282.534 240.783C283.034 240.09 283.189 239.303 283.119 238.464C282.995 237.855 282.781 237.341 282.389 236.859C282.353 236.813 282.316 236.767 282.278 236.72C281.76 236.142 280.986 235.817 280.222 235.746C279.37 235.71 278.601 235.956 277.939 236.494Z" fill="black"/>
<path d="M8.3493 251.669C8.41447 251.691 8.47965 251.712 8.5468 251.733C9.92221 252.218 10.9474 253.331 11.6188 254.588C12.2403 255.902 12.3784 257.495 11.9335 258.884C11.9064 258.959 11.8793 259.034 11.8514 259.111C11.8198 259.209 11.8198 259.209 11.7876 259.309C11.3024 260.684 10.1901 261.709 8.93298 262.381C7.61904 263.002 6.0253 263.14 4.63657 262.695C4.52414 262.655 4.52414 262.655 4.40943 262.613C4.34425 262.592 4.27907 262.571 4.21192 262.549C2.83652 262.064 1.8113 260.952 1.13988 259.695C0.518394 258.381 0.380352 256.787 0.82524 255.399C0.852327 255.324 0.879413 255.249 0.907321 255.172C0.928388 255.106 0.949455 255.041 0.971161 254.974C1.45634 253.599 2.56861 252.573 3.82574 251.902C5.22524 251.24 6.89309 251.143 8.3493 251.669Z" fill="black"/>
<path d="M45.8165 252.747C45.9777 252.87 46.1334 252.998 46.2888 253.129C46.361 253.181 46.4332 253.234 46.5077 253.288C47.4497 254.089 48.0147 255.372 48.1294 256.588C48.2233 258.098 47.8557 259.399 46.8725 260.57C46.8198 260.643 46.7671 260.715 46.7129 260.789C45.9121 261.731 44.6285 262.296 43.4134 262.411C41.9031 262.505 40.6019 262.137 39.4305 261.154C39.3221 261.075 39.3221 261.075 39.2116 260.994C38.2696 260.194 37.7046 258.91 37.5899 257.695C37.4959 256.185 37.8636 254.884 38.8468 253.712C38.8995 253.64 38.9521 253.568 39.0064 253.493C40.6412 251.57 43.8043 251.341 45.8165 252.747Z" fill="black"/>
<path d="M82.2424 253.36C82.4254 253.52 82.5982 253.685 82.7691 253.858C82.8146 253.901 82.8601 253.944 82.907 253.989C83.7165 254.816 84.077 256.01 84.1097 257.141C84.071 258.477 83.59 259.645 82.6231 260.57C82.5802 260.616 82.5372 260.661 82.4929 260.707C81.6397 261.546 80.3752 261.924 79.2056 261.914C77.9136 261.866 76.8189 261.342 75.9108 260.424C75.8653 260.381 75.8197 260.338 75.7728 260.294C74.9633 259.466 74.6029 258.272 74.5701 257.141C74.6088 255.805 75.0898 254.638 76.0567 253.712C76.0997 253.667 76.1427 253.622 76.1869 253.575C77.7921 251.998 80.5194 252.014 82.2424 253.36Z" fill="black"/>
<path d="M118.228 253.639C119.258 254.444 119.849 255.408 120.052 256.704C120.17 257.78 119.835 258.893 119.171 259.742C118.327 260.721 117.336 261.255 116.044 261.396C114.929 261.442 113.869 261.052 113.029 260.329C112.119 259.464 111.608 258.423 111.557 257.155C111.594 255.91 112.087 254.868 112.975 254.004C114.409 252.693 116.627 252.524 118.228 253.639Z" fill="black"/>
<path d="M154.635 254.223C155.356 254.798 155.853 255.666 155.982 256.578C156.081 257.599 155.891 258.553 155.269 259.389C154.562 260.23 153.687 260.71 152.592 260.862C151.558 260.907 150.608 260.572 149.8 259.928C149.004 259.196 148.633 258.234 148.58 257.177C148.579 256.115 149.01 255.209 149.733 254.449C151.105 253.145 153.147 253.139 154.635 254.223Z" fill="black"/>
<path d="M190.582 254.492C191.271 254.985 191.736 255.653 191.918 256.485C191.982 257.544 191.886 258.408 191.188 259.257C190.645 259.844 189.958 260.247 189.15 260.296C188.106 260.321 187.294 260.132 186.507 259.403C185.783 258.645 185.607 257.832 185.623 256.818C185.658 255.984 186.086 255.282 186.679 254.715C187.793 253.769 189.364 253.751 190.582 254.492Z" fill="black"/>
<path d="M226.754 254.917C227.336 255.333 227.757 255.92 227.888 256.631C227.967 257.454 227.848 258.129 227.363 258.806C226.887 259.373 226.269 259.72 225.531 259.791C224.714 259.818 224.068 259.639 223.437 259.11C222.879 258.557 222.629 257.927 222.603 257.15C222.623 256.364 222.882 255.733 223.437 255.171C224.402 254.365 225.673 254.256 226.754 254.917Z" fill="black"/>
<path d="M262.909 255.317C263.429 255.701 263.722 256.145 263.857 256.777C263.948 257.398 263.801 257.988 263.428 258.495C262.963 259.004 262.431 259.258 261.741 259.294C261.051 259.258 260.52 259.004 260.055 258.495C259.681 257.988 259.534 257.398 259.625 256.777C259.761 256.145 260.053 255.701 260.574 255.317C261.341 254.903 262.141 254.903 262.909 255.317Z" fill="black"/>
<path d="M299.17 255.828C299.595 256.208 299.798 256.558 299.854 257.128C299.839 257.557 299.687 257.92 299.401 258.24C299.003 258.607 298.641 258.788 298.086 258.769C297.555 258.693 297.192 258.43 296.863 258.017C296.617 257.659 296.556 257.277 296.616 256.849C296.76 256.324 297.047 255.987 297.492 255.682C298.07 255.405 298.643 255.49 299.17 255.828Z" fill="black"/>
<path d="M32.184 266.574C32.3652 266.734 32.5424 266.897 32.7181 267.064C32.778 267.12 32.8379 267.176 32.8997 267.234C34.9162 269.178 36.1626 272.061 36.235 274.86C36.276 278.211 35.1813 281.124 32.864 283.552C32.7831 283.639 32.7831 283.639 32.7004 283.728C30.7923 285.716 27.8854 286.925 25.1402 286.996C21.7896 287.037 18.8767 285.943 16.4479 283.625C16.3901 283.571 16.3322 283.517 16.2726 283.462C14.2896 281.559 13.0783 278.658 13.004 275.92C12.9608 272.562 14.0532 269.643 16.375 267.21C16.4289 267.152 16.4829 267.094 16.5385 267.034C20.671 262.728 27.7771 262.822 32.184 266.574ZM17.3234 267.939C17.2652 267.992 17.207 268.045 17.147 268.099C15.2687 269.867 14.3463 272.42 14.1861 274.943C14.1799 275.038 14.1737 275.133 14.1673 275.231C14.0806 277.997 15.2422 280.617 17.0991 282.617C18.9977 284.613 21.5968 285.695 24.3331 285.833C27.2231 285.88 29.8236 284.793 31.9156 282.823C31.9937 282.753 31.9937 282.753 32.0734 282.682C34.0416 280.846 34.9131 278.203 35.0665 275.585C35.128 272.832 34.0715 270.19 32.176 268.207C32.1142 268.143 32.0523 268.078 31.9885 268.012C31.9417 267.961 31.8948 267.909 31.8466 267.856C30.0582 265.948 27.3837 265.063 24.8375 264.93C21.9719 264.876 19.3897 265.991 17.3234 267.939Z" fill="black"/>
<path d="M67.713 267.208C67.7698 267.257 67.8266 267.305 67.8851 267.356C67.9449 267.406 68.0047 267.457 68.0664 267.51C70.1755 269.354 71.3966 271.921 71.5955 274.701C71.7659 277.427 70.903 280.09 69.1254 282.166C69.0746 282.226 69.0237 282.286 68.9712 282.347C68.3066 283.108 67.5713 283.742 66.7177 284.282C66.6748 284.309 66.6319 284.337 66.5876 284.365C65.1389 285.273 63.3973 285.836 61.6835 285.887C61.5393 285.893 61.5393 285.893 61.3922 285.899C58.8349 285.968 56.2349 285.118 54.3144 283.407C54.2533 283.354 54.1922 283.302 54.1292 283.248C52.1023 281.481 50.8252 278.951 50.604 276.269C50.4165 273.466 51.2408 270.738 53.0741 268.596C53.125 268.536 53.1759 268.476 53.2283 268.415C53.8948 267.652 54.6328 267.028 55.4818 266.48C55.5515 266.435 55.6212 266.39 55.693 266.344C59.3928 264.071 64.3811 264.448 67.713 267.208ZM54.6063 268.523C54.519 268.601 54.519 268.601 54.4299 268.681C52.8176 270.202 51.785 272.484 51.6788 274.694C51.6009 277.471 52.4229 279.851 54.2868 281.943C55.9235 283.653 58.2435 284.741 60.6181 284.808C63.4436 284.845 65.8298 283.93 67.8851 281.975C69.7486 280.064 70.5539 277.6 70.5274 274.974C70.473 272.684 69.4878 270.562 67.9581 268.888C67.9059 268.829 67.8537 268.771 67.7999 268.711C66.2765 267.096 63.9939 266.063 61.7804 265.96C59.0562 265.884 56.6373 266.668 54.6063 268.523Z" fill="black"/>
<path d="M97.2483 265.958C99.5503 265.903 101.975 266.635 103.686 268.217C103.816 268.342 103.946 268.468 104.074 268.596C104.135 268.657 104.196 268.718 104.259 268.781C104.318 268.84 104.377 268.899 104.438 268.961C104.493 269.015 104.549 269.07 104.605 269.126C106.272 270.856 107.054 273.313 107.01 275.686C106.943 276.712 106.774 277.702 106.408 278.664C106.39 278.712 106.372 278.759 106.354 278.809C105.897 279.984 105.255 280.982 104.365 281.874C104.304 281.936 104.243 281.998 104.18 282.062C102.39 283.837 100.086 284.757 97.5709 284.806C95.1389 284.781 92.8147 283.889 91.0865 282.166C91.0253 282.105 90.9641 282.044 90.901 281.982C90.8419 281.922 90.7827 281.863 90.7217 281.801C90.6666 281.747 90.6115 281.693 90.5547 281.636C88.9656 279.986 88.3133 277.834 88.1681 275.6C88.1628 275.527 88.1574 275.453 88.1519 275.378C88.0685 273.098 89.0611 270.889 90.5029 269.18C90.5402 269.133 90.5775 269.087 90.616 269.039C90.8884 268.707 91.1917 268.429 91.5243 268.158C91.5856 268.108 91.647 268.057 91.7101 268.006C93.3045 266.753 95.2243 266.05 97.2483 265.958ZM94.005 267.72C93.9606 267.741 93.9163 267.761 93.8706 267.782C91.9329 268.684 90.4286 270.398 89.6593 272.381C88.9277 274.467 88.9139 276.788 89.8446 278.82C90.85 280.897 92.4828 282.507 94.6616 283.334C96.9053 284.083 99.2538 283.982 101.389 282.943C101.936 282.664 102.431 282.335 102.906 281.947C102.944 281.917 102.981 281.886 103.02 281.855C104.365 280.739 105.296 279.255 105.752 277.57C105.786 277.454 105.786 277.454 105.822 277.336C106.361 275.211 105.919 272.967 104.87 271.086C103.625 269.05 101.719 267.695 99.4197 267.133C97.6265 266.705 95.6647 266.949 94.005 267.72Z" fill="black"/>
<path d="M139.44 269.052C141.211 270.593 142.201 272.608 142.378 274.943C142.505 277.091 141.751 279.224 140.332 280.832C138.707 282.621 136.678 283.569 134.272 283.712C132.075 283.762 129.984 282.945 128.387 281.448C126.693 279.82 125.799 277.755 125.72 275.404C125.753 273.874 126.174 272.479 126.91 271.149C126.95 271.077 126.99 271.005 127.03 270.931C128.091 269.146 129.945 267.891 131.917 267.328C134.618 266.675 137.304 267.297 139.44 269.052ZM129.245 269.69C129.187 269.736 129.13 269.781 129.071 269.828C127.64 271.017 126.79 272.9 126.618 274.724C126.494 276.748 127.082 278.628 128.369 280.196C128.428 280.273 128.428 280.273 128.489 280.352C129.598 281.731 131.414 282.559 133.13 282.8C135.252 282.982 137.222 282.429 138.876 281.072C138.927 281.032 138.978 280.993 139.031 280.953C140.411 279.843 141.242 278.024 141.48 276.307C141.666 274.185 141.103 272.212 139.751 270.566C139.712 270.514 139.673 270.463 139.632 270.41C138.498 269 136.629 268.16 134.869 267.953C132.811 267.76 130.835 268.377 129.245 269.69Z" fill="black"/>
<path d="M175.575 270.201C176.936 271.522 177.692 273.344 177.766 275.228C177.773 276.974 177.19 278.622 176.086 279.977C176.036 280.039 175.987 280.1 175.936 280.163C174.698 281.62 172.899 282.422 171.015 282.586C169.164 282.698 167.38 282.096 165.944 280.926C165.883 280.877 165.822 280.827 165.759 280.777C164.301 279.539 163.499 277.739 163.336 275.855C163.224 274.004 163.826 272.22 164.996 270.785C165.07 270.693 165.07 270.693 165.145 270.599C166.351 269.18 168.096 268.38 169.93 268.181C172.06 268.034 173.997 268.778 175.575 270.201ZM165.944 270.858C165.859 270.941 165.859 270.941 165.773 271.026C164.581 272.271 164.079 273.895 164.095 275.59C164.138 277.292 164.827 278.768 166.017 279.977C166.1 280.062 166.1 280.062 166.185 280.148C167.43 281.34 169.055 281.842 170.75 281.827C172.565 281.781 174.037 281.003 175.308 279.734C176.073 278.926 176.505 278.039 176.815 276.986C176.835 276.92 176.854 276.853 176.874 276.785C177.264 275.101 176.865 273.341 175.985 271.888C175.715 271.486 175.404 271.13 175.064 270.785C175.009 270.728 174.953 270.672 174.896 270.614C173.651 269.422 172.026 268.92 170.331 268.935C168.629 268.978 167.154 269.667 165.944 270.858Z" fill="black"/>
<path d="M210.519 270.343C210.699 270.483 210.867 270.628 211.034 270.785C211.096 270.842 211.158 270.899 211.222 270.958C212.39 272.078 213.063 273.533 213.111 275.152C213.123 276.445 212.834 277.468 212.201 278.591C212.167 278.653 212.134 278.714 212.099 278.777C211.574 279.648 210.754 280.311 209.866 280.78C209.801 280.815 209.736 280.85 209.669 280.886C208.327 281.552 206.691 281.671 205.256 281.246C204.378 280.938 203.618 280.547 202.935 279.905C202.871 279.847 202.808 279.789 202.742 279.729C201.607 278.654 200.976 277.164 200.931 275.61C200.917 273.985 201.366 272.497 202.497 271.295C202.555 271.232 202.613 271.168 202.673 271.102C204.716 268.946 208.089 268.736 210.519 270.343ZM203.141 271.519C202.005 272.68 201.544 274.072 201.549 275.673C201.633 277.161 202.298 278.454 203.373 279.467C204.561 280.526 206.015 280.927 207.584 280.838C209.171 280.648 210.471 279.846 211.458 278.614C212.308 277.427 212.619 276.007 212.447 274.565C212.175 272.993 211.322 271.709 210.035 270.788C207.822 269.426 205.016 269.68 203.141 271.519Z" fill="black"/>
<path d="M246.579 271.423C247.599 272.286 248.345 273.464 248.479 274.815C248.551 276.235 248.245 277.529 247.309 278.637C246.413 279.607 245.264 280.302 243.914 280.36C242.447 280.392 241.175 280.047 240.072 279.029C239.07 278.038 238.528 276.841 238.517 275.427C238.515 274.004 239.024 272.79 240.027 271.776C241.824 270.089 244.604 269.916 246.579 271.423ZM240.099 272.431C239.249 273.458 238.957 274.653 239.051 275.965C239.208 277.138 239.806 278.158 240.715 278.913C241.803 279.704 243.012 279.955 244.333 279.803C245.499 279.578 246.507 278.889 247.213 277.944C247.926 276.853 248.121 275.589 247.879 274.319C247.571 273.163 246.856 272.159 245.821 271.55C243.845 270.491 241.678 270.788 240.099 272.431Z" fill="black"/>
<path d="M282.243 272.171C283.046 272.746 283.577 273.617 283.811 274.571C283.99 275.663 283.806 276.68 283.183 277.606C282.525 278.481 281.659 279.072 280.565 279.248C279.351 279.331 278.335 279.079 277.373 278.308C276.632 277.637 276.176 276.682 276.091 275.69C276.043 274.541 276.386 273.51 277.164 272.651C278.568 271.275 280.595 271.176 282.243 272.171ZM277.49 272.897C276.819 273.641 276.494 274.533 276.479 275.527C276.531 276.431 276.904 277.315 277.574 277.935C278.539 278.712 279.428 278.885 280.638 278.81C281.397 278.695 282.187 278.223 282.665 277.627C283.276 276.789 283.587 275.902 283.437 274.856C283.278 273.962 282.863 273.171 282.134 272.615C280.642 271.614 278.835 271.651 277.49 272.897Z" fill="black"/>
<path d="M10.2508 288.514C10.3983 288.632 10.541 288.754 10.684 288.879C10.7657 288.949 10.7657 288.949 10.849 289.021C11.9837 290.08 12.6745 291.63 12.7546 293.17C12.8093 294.994 12.3256 296.539 11.1218 297.925C11.0511 298.007 11.0511 298.007 10.979 298.09C9.92019 299.225 8.37026 299.916 6.83052 299.996C5.00599 300.051 3.46067 299.567 2.07469 298.363C2.02023 298.316 1.96578 298.269 1.90967 298.22C0.775061 297.162 0.0842102 295.612 0.00414852 294.072C-0.0505814 292.248 0.433159 290.702 1.63693 289.316C1.7076 289.235 1.7076 289.235 1.77971 289.151C3.94355 286.833 7.76343 286.601 10.2508 288.514Z" fill="black"/>
<path d="M44.8296 288.149C44.8947 288.17 44.9599 288.191 45.0271 288.213C46.4025 288.698 47.4277 289.81 48.0991 291.067C48.7206 292.381 48.8586 293.975 48.4137 295.364C48.3867 295.438 48.3596 295.513 48.3317 295.591C48.3001 295.688 48.3001 295.688 48.2678 295.788C47.7826 297.164 46.6704 298.189 45.4132 298.86C44.0993 299.482 42.5056 299.62 41.1168 299.175C41.0044 299.134 41.0044 299.134 40.8897 299.093C40.8245 299.072 40.7593 299.051 40.6922 299.029C39.3168 298.544 38.2916 297.431 37.6201 296.174C36.9987 294.86 36.8606 293.267 37.3055 291.878C37.3326 291.803 37.3597 291.728 37.3876 291.651C37.4087 291.586 37.4297 291.521 37.4514 291.453C37.9366 290.078 39.0489 289.053 40.306 288.381C41.7055 287.719 43.3734 287.623 44.8296 288.149Z" fill="black"/>
<path d="M83.1339 289.973C84.1406 291.119 84.6564 292.506 84.5797 294.033C84.475 295.062 84.1142 296 83.4987 296.831C83.4607 296.882 83.4227 296.934 83.3835 296.987C82.5453 298.024 81.2613 298.64 79.9621 298.84C78.5721 298.976 77.2488 298.609 76.1296 297.779C76.0783 297.741 76.0269 297.703 75.974 297.664C74.9364 296.826 74.3209 295.542 74.1207 294.243C73.9843 292.853 74.3519 291.53 75.1812 290.411C75.2191 290.359 75.2571 290.308 75.2963 290.255C76.1526 289.195 77.4942 288.557 78.8292 288.381C80.468 288.278 81.9512 288.833 83.1339 289.973Z" fill="black"/>
<path d="M119.122 290.306C120.066 291.268 120.501 292.496 120.49 293.84C120.405 295.141 119.825 296.259 118.891 297.154C117.889 298.026 116.601 298.363 115.293 298.274C114.034 298.101 112.895 297.456 112.099 296.466C111.342 295.416 111.02 294.162 111.196 292.878C111.455 291.613 112.132 290.453 113.22 289.73C115.118 288.553 117.496 288.733 119.122 290.306Z" fill="black"/>
<path d="M154.635 290.265C155.685 291.055 156.184 292.043 156.386 293.329C156.516 294.318 156.082 295.391 155.498 296.166C154.665 297.127 153.689 297.563 152.434 297.727C151.399 297.778 150.332 297.319 149.564 296.653C148.719 295.832 148.246 294.811 148.187 293.621C148.255 292.345 148.804 291.274 149.744 290.427C151.198 289.253 153.097 289.314 154.635 290.265Z" fill="black"/>
<path d="M190.751 290.702C191.561 291.307 192.032 292.057 192.26 293.033C192.362 294.028 192.163 294.968 191.558 295.78C190.851 296.617 190.024 296.997 188.952 297.15C187.991 297.2 187.098 296.795 186.372 296.199C185.704 295.583 185.333 294.725 185.267 293.827C185.232 292.875 185.552 291.997 186.163 291.272C187.386 289.992 189.248 289.741 190.751 290.702Z" fill="black"/>
<path d="M226.93 291.195C227.627 291.708 228.042 292.396 228.179 293.256C228.263 294.036 228.037 294.815 227.572 295.445C227.025 296.094 226.313 296.465 225.464 296.557C224.583 296.585 223.799 296.268 223.15 295.682C222.578 295.09 222.311 294.281 222.322 293.466C222.407 292.584 222.805 291.818 223.485 291.255C224.557 290.538 225.833 290.511 226.93 291.195Z" fill="black"/>
<path d="M263.004 291.642C263.545 292.069 263.945 292.568 264.076 293.256C264.153 293.949 263.965 294.634 263.531 295.185C263.054 295.67 262.42 295.95 261.741 295.983C261.098 295.954 260.573 295.701 260.095 295.281C259.616 294.74 259.367 294.184 259.383 293.452C259.456 292.832 259.726 292.226 260.207 291.822C261.087 291.188 262.056 291.105 263.004 291.642Z" fill="black"/>
<path d="M299.243 292.162C299.714 292.589 299.966 292.967 300 293.607C299.986 294.089 299.856 294.449 299.531 294.808C299.066 295.243 298.683 295.412 298.045 295.394C297.46 295.326 297.099 295.033 296.733 294.586C296.44 294.178 296.414 293.744 296.471 293.256C296.609 292.695 296.959 292.347 297.419 292.016C297.999 291.719 298.711 291.803 299.243 292.162Z" fill="black"/>
</svg>
